<?xml version="1.0" encoding="utf-8"?>
<svg version="1.1" xmlns:xlink="http://www.w3.org/1999/xlink" width="186px" height="176px" xmlns="http://www.w3.org/2000/svg">
  <defs>
    <pattern id="BGPattern" patternUnits="userSpaceOnUse" alignment="0 0" imageRepeat="None" />
    <mask fill="white" id="Clip228">
      <path d="M 34 128  L 51 128  L 51 144  L 34 144  L 34 128  Z M 34 32  L 51 32  L 51 48  L 34 48  L 34 32  Z M 135 32  L 152 32  L 152 48  L 135 48  L 135 32  Z M 17 112  L 17 159  L 68 159  L 68 112  L 17 112  Z M 17 16  L 17 64  L 68 64  L 68 16  L 17 16  Z M 118 16  L 118 64  L 169 64  L 169 16  L 118 16  Z M 0 96  L 85 96  L 85 176  L 0 176  L 0 96  Z M 135 160  L 152 160  L 152 176  L 135 176  L 135 160  Z M 169 160  L 186 160  L 186 176  L 169 176  L 169 160  Z M 169 96  L 186 96  L 186 144  L 135 144  L 135 128  L 118 128  L 118 176  L 101 176  L 101 96  L 152 96  L 152 112  L 169 112  L 169 96  Z M 0 0  L 85 0  L 85 80  L 0 80  L 0 0  Z M 101 0  L 186 0  L 186 80  L 101 80  L 101 0  Z " fill-rule="evenodd" />
    </mask>
  </defs>
  <g transform="matrix(1 0 0 1 -91 -282 )">
    <path d="M 34 128  L 51 128  L 51 144  L 34 144  L 34 128  Z M 34 32  L 51 32  L 51 48  L 34 48  L 34 32  Z M 135 32  L 152 32  L 152 48  L 135 48  L 135 32  Z M 17 112  L 17 159  L 68 159  L 68 112  L 17 112  Z M 17 16  L 17 64  L 68 64  L 68 16  L 17 16  Z M 118 16  L 118 64  L 169 64  L 169 16  L 118 16  Z M 0 96  L 85 96  L 85 176  L 0 176  L 0 96  Z M 135 160  L 152 160  L 152 176  L 135 176  L 135 160  Z M 169 160  L 186 160  L 186 176  L 169 176  L 169 160  Z M 169 96  L 186 96  L 186 144  L 135 144  L 135 128  L 118 128  L 118 176  L 101 176  L 101 96  L 152 96  L 152 112  L 169 112  L 169 96  Z M 0 0  L 85 0  L 85 80  L 0 80  L 0 0  Z M 101 0  L 186 0  L 186 80  L 101 80  L 101 0  Z " fill-rule="nonzero" fill="rgba(0, 0, 0, 1)" stroke="none" transform="matrix(1 0 0 1 91 282 )" class="fill" />
    <path d="M 34 128  L 51 128  L 51 144  L 34 144  L 34 128  Z " stroke-width="0" stroke-dasharray="0" stroke="rgba(255, 255, 255, 0)" fill="none" transform="matrix(1 0 0 1 91 282 )" class="stroke" mask="url(#Clip228)" />
    <path d="M 34 32  L 51 32  L 51 48  L 34 48  L 34 32  Z " stroke-width="0" stroke-dasharray="0" stroke="rgba(255, 255, 255, 0)" fill="none" transform="matrix(1 0 0 1 91 282 )" class="stroke" mask="url(#Clip228)" />
    <path d="M 135 32  L 152 32  L 152 48  L 135 48  L 135 32  Z " stroke-width="0" stroke-dasharray="0" stroke="rgba(255, 255, 255, 0)" fill="none" transform="matrix(1 0 0 1 91 282 )" class="stroke" mask="url(#Clip228)" />
    <path d="M 17 112  L 17 159  L 68 159  L 68 112  L 17 112  Z " stroke-width="0" stroke-dasharray="0" stroke="rgba(255, 255, 255, 0)" fill="none" transform="matrix(1 0 0 1 91 282 )" class="stroke" mask="url(#Clip228)" />
    <path d="M 17 16  L 17 64  L 68 64  L 68 16  L 17 16  Z " stroke-width="0" stroke-dasharray="0" stroke="rgba(255, 255, 255, 0)" fill="none" transform="matrix(1 0 0 1 91 282 )" class="stroke" mask="url(#Clip228)" />
    <path d="M 118 16  L 118 64  L 169 64  L 169 16  L 118 16  Z " stroke-width="0" stroke-dasharray="0" stroke="rgba(255, 255, 255, 0)" fill="none" transform="matrix(1 0 0 1 91 282 )" class="stroke" mask="url(#Clip228)" />
    <path d="M 0 96  L 85 96  L 85 176  L 0 176  L 0 96  Z " stroke-width="0" stroke-dasharray="0" stroke="rgba(255, 255, 255, 0)" fill="none" transform="matrix(1 0 0 1 91 282 )" class="stroke" mask="url(#Clip228)" />
    <path d="M 135 160  L 152 160  L 152 176  L 135 176  L 135 160  Z " stroke-width="0" stroke-dasharray="0" stroke="rgba(255, 255, 255, 0)" fill="none" transform="matrix(1 0 0 1 91 282 )" class="stroke" mask="url(#Clip228)" />
    <path d="M 169 160  L 186 160  L 186 176  L 169 176  L 169 160  Z " stroke-width="0" stroke-dasharray="0" stroke="rgba(255, 255, 255, 0)" fill="none" transform="matrix(1 0 0 1 91 282 )" class="stroke" mask="url(#Clip228)" />
    <path d="M 169 96  L 186 96  L 186 144  L 135 144  L 135 128  L 118 128  L 118 176  L 101 176  L 101 96  L 152 96  L 152 112  L 169 112  L 169 96  Z " stroke-width="0" stroke-dasharray="0" stroke="rgba(255, 255, 255, 0)" fill="none" transform="matrix(1 0 0 1 91 282 )" class="stroke" mask="url(#Clip228)" />
    <path d="M 0 0  L 85 0  L 85 80  L 0 80  L 0 0  Z " stroke-width="0" stroke-dasharray="0" stroke="rgba(255, 255, 255, 0)" fill="none" transform="matrix(1 0 0 1 91 282 )" class="stroke" mask="url(#Clip228)" />
    <path d="M 101 0  L 186 0  L 186 80  L 101 80  L 101 0  Z " stroke-width="0" stroke-dasharray="0" stroke="rgba(255, 255, 255, 0)" fill="none" transform="matrix(1 0 0 1 91 282 )" class="stroke" mask="url(#Clip228)" />
  </g>
</svg>