<?xml version="1.0" encoding="utf-8"?>
<svg version="1.1" xmlns:xlink="http://www.w3.org/1999/xlink" width="82px" height="27px" xmlns="http://www.w3.org/2000/svg">
  <defs>
    <pattern id="BGPattern" patternUnits="userSpaceOnUse" alignment="0 0" imageRepeat="None" />
    <mask fill="white" id="Clip237">
      <path d="M 0 22  L 0 5  C 0 2.1999999999999886  1.6400000000001003 0  3.727272727272748 0  L 45.57049180327863 0  L 46.00000000000001 0  L 78.27272727272725 0  C 80.3599999999999 0  82 2.1999999999999886  82 5  L 82 22  C 82 24.80000000000001  80.3599999999999 27  78.27272727272725 27  L 3.727272727272748 27  C 1.6400000000001003 27  0 24.80000000000001  0 22  Z " fill-rule="evenodd" />
    </mask>
  </defs>
  <g transform="matrix(1 0 0 1 -1443 -328 )">
    <path d="M 0 22  L 0 5  C 0 2.1999999999999886  1.6400000000001003 0  3.727272727272748 0  L 45.57049180327863 0  L 46.00000000000001 0  L 78.27272727272725 0  C 80.3599999999999 0  82 2.1999999999999886  82 5  L 82 22  C 82 24.80000000000001  80.3599999999999 27  78.27272727272725 27  L 3.727272727272748 27  C 1.6400000000001003 27  0 24.80000000000001  0 22  Z " fill-rule="nonzero" fill="rgba(22, 155, 213, 1)" stroke="none" transform="matrix(1 0 0 1 1443 328 )" class="fill" />
    <path d="M 0 22  L 0 5  C 0 2.1999999999999886  1.6400000000001003 0  3.727272727272748 0  L 45.57049180327863 0  L 46.00000000000001 0  L 78.27272727272725 0  C 80.3599999999999 0  82 2.1999999999999886  82 5  L 82 22  C 82 24.80000000000001  80.3599999999999 27  78.27272727272725 27  L 3.727272727272748 27  C 1.6400000000001003 27  0 24.80000000000001  0 22  Z " stroke-width="0" stroke-dasharray="0" stroke="rgba(121, 121, 121, 1)" fill="none" transform="matrix(1 0 0 1 1443 328 )" class="stroke" mask="url(#Clip237)" />
  </g>
</svg>