<?xml version="1.0" encoding="utf-8"?>
<svg version="1.1" xmlns:xlink="http://www.w3.org/1999/xlink" width="104px" height="15px" xmlns="http://www.w3.org/2000/svg">
  <defs>
    <pattern id="BGPattern" patternUnits="userSpaceOnUse" alignment="0 0" imageRepeat="None" />
    <mask fill="white" id="Clip54">
      <path d="M 0 15  L 0 0  L 28.444444444444446 0  L 104 0  L 104 15  L 41.841269841269856 15  L 0 15  Z " fill-rule="evenodd" />
    </mask>
  </defs>
  <g transform="matrix(1 0 0 1 -191 -51 )">
    <path d="M 0 15  L 0 0  L 28.444444444444446 0  L 104 0  L 104 15  L 41.841269841269856 15  L 0 15  Z " fill-rule="nonzero" fill="rgba(255, 255, 128, 1)" stroke="none" transform="matrix(1 0 0 1 191 51 )" class="fill" />
    <path d="M 0 15  L 0 0  L 28.444444444444446 0  L 104 0  L 104 15  L 41.841269841269856 15  L 0 15  Z " stroke-width="0" stroke-dasharray="0" stroke="rgba(121, 121, 121, 1)" fill="none" transform="matrix(1 0 0 1 191 51 )" class="stroke" mask="url(#Clip54)" />
  </g>
</svg>