<?xml version="1.0" encoding="utf-8"?>
<svg version="1.1" xmlns:xlink="http://www.w3.org/1999/xlink" width="82px" height="27px" xmlns="http://www.w3.org/2000/svg">
  <defs>
    <pattern id="BGPattern" patternUnits="userSpaceOnUse" alignment="0 0" imageRepeat="None" />
    <mask fill="white" id="Clip236">
      <path d="M 0 22  L 0 5  C 0 2.1999999999999886  1.6400000000000339 0  3.7272727272727275 0  L 45.57049180327872 0  L 78.27272727272728 0  C 80.35999999999996 0  82 2.1999999999999886  82 5  L 82 22  C 82 24.80000000000001  80.35999999999996 27  78.27272727272728 27  L 3.7272727272727275 27  C 1.6400000000000339 27  0 24.80000000000001  0 22  Z " fill-rule="evenodd" />
    </mask>
  </defs>
  <g transform="matrix(1 0 0 1 -1443 -331 )">
    <path d="M 0 22  L 0 5  C 0 2.1999999999999886  1.6400000000000339 0  3.7272727272727275 0  L 45.57049180327872 0  L 78.27272727272728 0  C 80.35999999999996 0  82 2.1999999999999886  82 5  L 82 22  C 82 24.80000000000001  80.35999999999996 27  78.27272727272728 27  L 3.7272727272727275 27  C 1.6400000000000339 27  0 24.80000000000001  0 22  Z " fill-rule="nonzero" fill="rgba(22, 155, 213, 1)" stroke="none" transform="matrix(1 0 0 1 1443 331 )" class="fill" />
    <path d="M 0 22  L 0 5  C 0 2.1999999999999886  1.6400000000000339 0  3.7272727272727275 0  L 45.57049180327872 0  L 78.27272727272728 0  C 80.35999999999996 0  82 2.1999999999999886  82 5  L 82 22  C 82 24.80000000000001  80.35999999999996 27  78.27272727272728 27  L 3.7272727272727275 27  C 1.6400000000000339 27  0 24.80000000000001  0 22  Z " stroke-width="0" stroke-dasharray="0" stroke="rgba(121, 121, 121, 1)" fill="none" transform="matrix(1 0 0 1 1443 331 )" class="stroke" mask="url(#Clip236)" />
  </g>
</svg>