<?xml version="1.0" encoding="utf-8"?>
<svg version="1.1" xmlns:xlink="http://www.w3.org/1999/xlink" width="8px" height="12px" xmlns="http://www.w3.org/2000/svg">
  <defs>
    <pattern id="BGPattern" patternUnits="userSpaceOnUse" alignment="0 0" imageRepeat="None" />
    <mask fill="white" id="Clip49">
      <path d="M 7.811447811447811 8.969696969696969  C 7.937149270482604 9.158249158249156  8 9.387205387205386  8 9.656565656565657  C 8 9.925925925925927  7.937149270482604 10.154882154882154  7.811447811447811 10.343434343434343  L 6.895622895622895 11.717171717171716  C 6.769921436588104 11.905723905723907  6.617283950617284 12  6.437710437710438 12  C 6.258136924803592 12  6.105499438832773 11.905723905723907  5.97979797979798 11.717171717171716  L 4 8.747474747474747  L 2.0202020202020203 11.717171717171716  C 1.894500561167228 11.905723905723907  1.7418630751964086 12  1.5622895622895623 12  C 1.3827160493827162 12  1.230078563411897 11.905723905723907  1.1043771043771045 11.717171717171716  L 0.18855218855218855 10.343434343434343  C 0.06285072951739624 10.154882154882154  0 9.925925925925927  0 9.656565656565657  C 0 9.387205387205386  0.06285072951739624 9.158249158249156  0.18855218855218855 8.969696969696969  L 2.1683501683501682 6  L 0.18855218855218855 3.03030303030303  C 0.06285072951739624 2.841750841750841  0 2.612794612794613  0 2.3434343434343434  C 0 2.074074074074074  0.06285072951739624 1.8451178451178434  0.18855218855218855 1.656565656565657  L 1.1043771043771045 0.2828282828282829  C 1.230078563411897 0.09427609427609385  1.3827160493827162 0  1.5622895622895623 0  C 1.7418630751964086 0  1.894500561167228 0.09427609427609385  2.0202020202020203 0.2828282828282829  L 4 3.252525252525253  L 5.97979797979798 0.2828282828282829  C 6.105499438832773 0.09427609427609385  6.258136924803592 0  6.437710437710438 0  C 6.617283950617284 0  6.769921436588104 0.09427609427609385  6.895622895622895 0.2828282828282829  L 7.811447811447811 1.656565656565657  C 7.937149270482604 1.8451178451178434  8 2.074074074074074  8 2.3434343434343434  C 8 2.612794612794613  7.937149270482604 2.841750841750841  7.811447811447811 3.03030303030303  L 5.831649831649831 6  L 7.811447811447811 8.969696969696969  Z " fill-rule="evenodd" />
    </mask>
  </defs>
  <g transform="matrix(1 0 0 1 -274 -296 )">
    <path d="M 7.811447811447811 8.969696969696969  C 7.937149270482604 9.158249158249156  8 9.387205387205386  8 9.656565656565657  C 8 9.925925925925927  7.937149270482604 10.154882154882154  7.811447811447811 10.343434343434343  L 6.895622895622895 11.717171717171716  C 6.769921436588104 11.905723905723907  6.617283950617284 12  6.437710437710438 12  C 6.258136924803592 12  6.105499438832773 11.905723905723907  5.97979797979798 11.717171717171716  L 4 8.747474747474747  L 2.0202020202020203 11.717171717171716  C 1.894500561167228 11.905723905723907  1.7418630751964086 12  1.5622895622895623 12  C 1.3827160493827162 12  1.230078563411897 11.905723905723907  1.1043771043771045 11.717171717171716  L 0.18855218855218855 10.343434343434343  C 0.06285072951739624 10.154882154882154  0 9.925925925925927  0 9.656565656565657  C 0 9.387205387205386  0.06285072951739624 9.158249158249156  0.18855218855218855 8.969696969696969  L 2.1683501683501682 6  L 0.18855218855218855 3.03030303030303  C 0.06285072951739624 2.841750841750841  0 2.612794612794613  0 2.3434343434343434  C 0 2.074074074074074  0.06285072951739624 1.8451178451178434  0.18855218855218855 1.656565656565657  L 1.1043771043771045 0.2828282828282829  C 1.230078563411897 0.09427609427609385  1.3827160493827162 0  1.5622895622895623 0  C 1.7418630751964086 0  1.894500561167228 0.09427609427609385  2.0202020202020203 0.2828282828282829  L 4 3.252525252525253  L 5.97979797979798 0.2828282828282829  C 6.105499438832773 0.09427609427609385  6.258136924803592 0  6.437710437710438 0  C 6.617283950617284 0  6.769921436588104 0.09427609427609385  6.895622895622895 0.2828282828282829  L 7.811447811447811 1.656565656565657  C 7.937149270482604 1.8451178451178434  8 2.074074074074074  8 2.3434343434343434  C 8 2.612794612794613  7.937149270482604 2.841750841750841  7.811447811447811 3.03030303030303  L 5.831649831649831 6  L 7.811447811447811 8.969696969696969  Z " fill-rule="nonzero" fill="rgba(51, 51, 51, 1)" stroke="none" transform="matrix(1 0 0 1 274 296 )" class="fill" />
    <path d="M 7.811447811447811 8.969696969696969  C 7.937149270482604 9.158249158249156  8 9.387205387205386  8 9.656565656565657  C 8 9.925925925925927  7.937149270482604 10.154882154882154  7.811447811447811 10.343434343434343  L 6.895622895622895 11.717171717171716  C 6.769921436588104 11.905723905723907  6.617283950617284 12  6.437710437710438 12  C 6.258136924803592 12  6.105499438832773 11.905723905723907  5.97979797979798 11.717171717171716  L 4 8.747474747474747  L 2.0202020202020203 11.717171717171716  C 1.894500561167228 11.905723905723907  1.7418630751964086 12  1.5622895622895623 12  C 1.3827160493827162 12  1.230078563411897 11.905723905723907  1.1043771043771045 11.717171717171716  L 0.18855218855218855 10.343434343434343  C 0.06285072951739624 10.154882154882154  0 9.925925925925927  0 9.656565656565657  C 0 9.387205387205386  0.06285072951739624 9.158249158249156  0.18855218855218855 8.969696969696969  L 2.1683501683501682 6  L 0.18855218855218855 3.03030303030303  C 0.06285072951739624 2.841750841750841  0 2.612794612794613  0 2.3434343434343434  C 0 2.074074074074074  0.06285072951739624 1.8451178451178434  0.18855218855218855 1.656565656565657  L 1.1043771043771045 0.2828282828282829  C 1.230078563411897 0.09427609427609385  1.3827160493827162 0  1.5622895622895623 0  C 1.7418630751964086 0  1.894500561167228 0.09427609427609385  2.0202020202020203 0.2828282828282829  L 4 3.252525252525253  L 5.97979797979798 0.2828282828282829  C 6.105499438832773 0.09427609427609385  6.258136924803592 0  6.437710437710438 0  C 6.617283950617284 0  6.769921436588104 0.09427609427609385  6.895622895622895 0.2828282828282829  L 7.811447811447811 1.656565656565657  C 7.937149270482604 1.8451178451178434  8 2.074074074074074  8 2.3434343434343434  C 8 2.612794612794613  7.937149270482604 2.841750841750841  7.811447811447811 3.03030303030303  L 5.831649831649831 6  L 7.811447811447811 8.969696969696969  Z " stroke-width="0" stroke-dasharray="0" stroke="rgba(255, 255, 255, 0)" fill="none" transform="matrix(1 0 0 1 274 296 )" class="stroke" mask="url(#Clip49)" />
  </g>
</svg>