<?xml version="1.0" encoding="utf-8"?>
<svg version="1.1" xmlns:xlink="http://www.w3.org/1999/xlink" width="16px" height="15px" xmlns="http://www.w3.org/2000/svg">
  <defs>
    <pattern id="BGPattern" patternUnits="userSpaceOnUse" alignment="0 0" imageRepeat="None" />
    <mask fill="white" id="Clip242">
      <path d="M 9.8125 9.19921875  C 10.655448717948719 8.408954326923077  11.076923076923077 7.457932692307692  11.076923076923077 6.346153846153847  C 11.076923076923077 5.234374999999999  10.655448717948719 4.283353365384615  9.8125 3.493088942307692  C 8.969551282051283 2.7028245192307683  7.955128205128205 2.307692307692308  6.769230769230769 2.307692307692308  C 5.583333333333334 2.307692307692308  4.568910256410257 2.7028245192307683  3.7259615384615383 3.493088942307692  C 2.8830128205128207 4.283353365384615  2.4615384615384617 5.234374999999999  2.4615384615384617 6.346153846153847  C 2.4615384615384617 7.457932692307692  2.8830128205128207 8.408954326923077  3.7259615384615383 9.19921875  C 4.568910256410257 9.98948317307692  5.583333333333334 10.384615384615385  6.769230769230769 10.384615384615385  C 7.955128205128205 10.384615384615385  8.969551282051283 9.98948317307692  9.8125 9.19921875  Z M 15.64423076923077 13.034855769230768  C 15.881410256410257 13.25721153846154  16 13.527644230769232  16 13.846153846153847  C 16 14.158653846153847  15.87820512820513 14.42908653846154  15.634615384615385 14.657451923076923  C 15.391025641025642 14.885817307692307  15.102564102564104 15  14.76923076923077 15  C 14.423076923076923 15  14.134615384615385 14.885817307692307  13.903846153846153 14.657451923076923  L 10.60576923076923 11.574519230769232  C 9.458333333333334 12.31971153846154  8.17948717948718 12.692307692307692  6.769230769230769 12.692307692307692  C 5.852564102564103 12.692307692307692  4.975961538461538 12.525540865384615  4.139423076923077 12.192007211538463  C 3.3028846153846154 11.858473557692308  2.581730769230769 11.407752403846153  1.9759615384615385 10.83984375  C 1.3701923076923077 10.271935096153847  0.8894230769230771 9.595853365384615  0.5336538461538461 8.811598557692308  C 0.1778846153846154 8.02734375  0 7.205528846153845  0 6.346153846153847  C 0 5.486778846153844  0.1778846153846154 4.6649639423076925  0.5336538461538461 3.880709134615384  C 0.8894230769230771 3.0964543269230766  1.3701923076923077 2.4203725961538467  1.9759615384615385 1.852463942307692  C 2.581730769230769 1.2845552884615392  3.3028846153846154 0.8338341346153844  4.139423076923077 0.5003004807692313  C 4.975961538461538 0.16676682692307654  5.852564102564103 0  6.769230769230769 0  C 7.685897435897436 0  8.5625 0.16676682692307654  9.399038461538462 0.5003004807692313  C 10.235576923076923 0.8338341346153844  10.95673076923077 1.2845552884615392  11.5625 1.852463942307692  C 12.16826923076923 2.4203725961538467  12.649038461538462 3.0964543269230766  13.004807692307692 3.880709134615384  C 13.360576923076923 4.6649639423076925  13.538461538461538 5.486778846153844  13.538461538461538 6.346153846153847  C 13.538461538461538 7.66826923076923  13.141025641025642 8.867187499999998  12.346153846153847 9.942908653846153  L 15.64423076923077 13.034855769230768  Z " fill-rule="evenodd" />
    </mask>
  </defs>
  <g transform="matrix(1 0 0 1 -75 -294 )">
    <path d="M 9.8125 9.19921875  C 10.655448717948719 8.408954326923077  11.076923076923077 7.457932692307692  11.076923076923077 6.346153846153847  C 11.076923076923077 5.234374999999999  10.655448717948719 4.283353365384615  9.8125 3.493088942307692  C 8.969551282051283 2.7028245192307683  7.955128205128205 2.307692307692308  6.769230769230769 2.307692307692308  C 5.583333333333334 2.307692307692308  4.568910256410257 2.7028245192307683  3.7259615384615383 3.493088942307692  C 2.8830128205128207 4.283353365384615  2.4615384615384617 5.234374999999999  2.4615384615384617 6.346153846153847  C 2.4615384615384617 7.457932692307692  2.8830128205128207 8.408954326923077  3.7259615384615383 9.19921875  C 4.568910256410257 9.98948317307692  5.583333333333334 10.384615384615385  6.769230769230769 10.384615384615385  C 7.955128205128205 10.384615384615385  8.969551282051283 9.98948317307692  9.8125 9.19921875  Z M 15.64423076923077 13.034855769230768  C 15.881410256410257 13.25721153846154  16 13.527644230769232  16 13.846153846153847  C 16 14.158653846153847  15.87820512820513 14.42908653846154  15.634615384615385 14.657451923076923  C 15.391025641025642 14.885817307692307  15.102564102564104 15  14.76923076923077 15  C 14.423076923076923 15  14.134615384615385 14.885817307692307  13.903846153846153 14.657451923076923  L 10.60576923076923 11.574519230769232  C 9.458333333333334 12.31971153846154  8.17948717948718 12.692307692307692  6.769230769230769 12.692307692307692  C 5.852564102564103 12.692307692307692  4.975961538461538 12.525540865384615  4.139423076923077 12.192007211538463  C 3.3028846153846154 11.858473557692308  2.581730769230769 11.407752403846153  1.9759615384615385 10.83984375  C 1.3701923076923077 10.271935096153847  0.8894230769230771 9.595853365384615  0.5336538461538461 8.811598557692308  C 0.1778846153846154 8.02734375  0 7.205528846153845  0 6.346153846153847  C 0 5.486778846153844  0.1778846153846154 4.6649639423076925  0.5336538461538461 3.880709134615384  C 0.8894230769230771 3.0964543269230766  1.3701923076923077 2.4203725961538467  1.9759615384615385 1.852463942307692  C 2.581730769230769 1.2845552884615392  3.3028846153846154 0.8338341346153844  4.139423076923077 0.5003004807692313  C 4.975961538461538 0.16676682692307654  5.852564102564103 0  6.769230769230769 0  C 7.685897435897436 0  8.5625 0.16676682692307654  9.399038461538462 0.5003004807692313  C 10.235576923076923 0.8338341346153844  10.95673076923077 1.2845552884615392  11.5625 1.852463942307692  C 12.16826923076923 2.4203725961538467  12.649038461538462 3.0964543269230766  13.004807692307692 3.880709134615384  C 13.360576923076923 4.6649639423076925  13.538461538461538 5.486778846153844  13.538461538461538 6.346153846153847  C 13.538461538461538 7.66826923076923  13.141025641025642 8.867187499999998  12.346153846153847 9.942908653846153  L 15.64423076923077 13.034855769230768  Z " fill-rule="nonzero" fill="rgba(170, 170, 170, 1)" stroke="none" transform="matrix(1 0 0 1 75 294 )" class="fill" />
    <path d="M 9.8125 9.19921875  C 10.655448717948719 8.408954326923077  11.076923076923077 7.457932692307692  11.076923076923077 6.346153846153847  C 11.076923076923077 5.234374999999999  10.655448717948719 4.283353365384615  9.8125 3.493088942307692  C 8.969551282051283 2.7028245192307683  7.955128205128205 2.307692307692308  6.769230769230769 2.307692307692308  C 5.583333333333334 2.307692307692308  4.568910256410257 2.7028245192307683  3.7259615384615383 3.493088942307692  C 2.8830128205128207 4.283353365384615  2.4615384615384617 5.234374999999999  2.4615384615384617 6.346153846153847  C 2.4615384615384617 7.457932692307692  2.8830128205128207 8.408954326923077  3.7259615384615383 9.19921875  C 4.568910256410257 9.98948317307692  5.583333333333334 10.384615384615385  6.769230769230769 10.384615384615385  C 7.955128205128205 10.384615384615385  8.969551282051283 9.98948317307692  9.8125 9.19921875  Z " stroke-width="0" stroke-dasharray="0" stroke="rgba(255, 255, 255, 0)" fill="none" transform="matrix(1 0 0 1 75 294 )" class="stroke" mask="url(#Clip242)" />
    <path d="M 15.64423076923077 13.034855769230768  C 15.881410256410257 13.25721153846154  16 13.527644230769232  16 13.846153846153847  C 16 14.158653846153847  15.87820512820513 14.42908653846154  15.634615384615385 14.657451923076923  C 15.391025641025642 14.885817307692307  15.102564102564104 15  14.76923076923077 15  C 14.423076923076923 15  14.134615384615385 14.885817307692307  13.903846153846153 14.657451923076923  L 10.60576923076923 11.574519230769232  C 9.458333333333334 12.31971153846154  8.17948717948718 12.692307692307692  6.769230769230769 12.692307692307692  C 5.852564102564103 12.692307692307692  4.975961538461538 12.525540865384615  4.139423076923077 12.192007211538463  C 3.3028846153846154 11.858473557692308  2.581730769230769 11.407752403846153  1.9759615384615385 10.83984375  C 1.3701923076923077 10.271935096153847  0.8894230769230771 9.595853365384615  0.5336538461538461 8.811598557692308  C 0.1778846153846154 8.02734375  0 7.205528846153845  0 6.346153846153847  C 0 5.486778846153844  0.1778846153846154 4.6649639423076925  0.5336538461538461 3.880709134615384  C 0.8894230769230771 3.0964543269230766  1.3701923076923077 2.4203725961538467  1.9759615384615385 1.852463942307692  C 2.581730769230769 1.2845552884615392  3.3028846153846154 0.8338341346153844  4.139423076923077 0.5003004807692313  C 4.975961538461538 0.16676682692307654  5.852564102564103 0  6.769230769230769 0  C 7.685897435897436 0  8.5625 0.16676682692307654  9.399038461538462 0.5003004807692313  C 10.235576923076923 0.8338341346153844  10.95673076923077 1.2845552884615392  11.5625 1.852463942307692  C 12.16826923076923 2.4203725961538467  12.649038461538462 3.0964543269230766  13.004807692307692 3.880709134615384  C 13.360576923076923 4.6649639423076925  13.538461538461538 5.486778846153844  13.538461538461538 6.346153846153847  C 13.538461538461538 7.66826923076923  13.141025641025642 8.867187499999998  12.346153846153847 9.942908653846153  L 15.64423076923077 13.034855769230768  Z " stroke-width="0" stroke-dasharray="0" stroke="rgba(255, 255, 255, 0)" fill="none" transform="matrix(1 0 0 1 75 294 )" class="stroke" mask="url(#Clip242)" />
  </g>
</svg>