<?xml version="1.0" encoding="utf-8"?>
<svg version="1.1" xmlns:xlink="http://www.w3.org/1999/xlink" width="703px" height="108px" xmlns="http://www.w3.org/2000/svg">
  <g transform="matrix(1 0 0 1 -62 -854 )">
    <path d="M 0 70.46052631579005  L 25.925925925925945 52.0065789473681  L 51.85185185185189 36.907894736842536  L 77.77777777777757 46.973684210526244  L 103.70370370370378 60.39473684210566  L 129.62962962962973 48.651315789473756  L 155.55555555555566 63.74999999999999  L 181.48148148148135 97.30263157894751  L 207.4074074074073 58.71710526315814  L 233.3333333333335 46.973684210526244  L 259.2592592592592 0  L 285.1851851851854 60.39473684210566  L 311.1111111111113 36.907894736842536  L 337.0370370370373 60.39473684210566  L 362.9629629629627 36.907894736842536  L 388.8888888888887 46.973684210526244  L 414.8148148148146 52.0065789473681  L 440.74074074074053 102.33552631578937  L 466.666666666667 70.46052631579005  L 492.59259259259244 52.0065789473681  L 518.5185185185184 65.42763157894683  L 544.4444444444448 53.68421052631561  L 570.3703703703708 36.907894736842536  L 596.2962962962962 80.52631578947376  L 622.2222222222222 46.973684210526244  L 648.1481481481476 70.46052631579005  L 674.074074074074 68.78289473684185  L 700 85.55921052631561  " stroke-width="2" stroke-dasharray="0" stroke="rgba(6, 204, 125, 1)" fill="none" transform="matrix(1 0 0 1 63 855 )" class="stroke" />
  </g>
</svg>