<?xml version="1.0" encoding="utf-8"?>
<svg version="1.1" xmlns:xlink="http://www.w3.org/1999/xlink" width="703px" height="111px" xmlns="http://www.w3.org/2000/svg">
  <g transform="matrix(1 0 0 1 -62 -891 )">
    <path d="M 0 85.97222222222217  L 25.925925925925945 36.833333333333485  L 51.85185185185189 35.13888888888914  L 77.77777777777783 92.75000000000023  L 103.70370370370378 79.1944444444448  L 129.62962962962973 108  L 155.55555555555566 92.75000000000023  L 181.48148148148164 41.91666666666651  L 207.4074074074073 97.83333333333326  L 233.33333333333323 58.86111111111131  L 259.2592592592592 106.30555555555566  L 285.1851851851854 45.305555555555884  L 311.1111111111113 69.02777777777806  L 337.0370370370368 96.13888888888891  L 362.9629629629633 85.97222222222217  L 388.8888888888887 58.86111111111131  L 414.8148148148146 53.77777777777761  L 440.74074074074053 2.9444444444445734  L 466.66666666666646 69.02777777777806  L 492.59259259259244 87.66666666666652  L 518.5185185185184 74.11111111111109  L 544.4444444444443 85.97222222222217  L 570.3703703703702 35.13888888888914  L 596.2962962962962 75.80555555555543  L 622.2222222222222 24.972222222222403  L 648.148148148148 35.13888888888914  L 674.074074074074 53.77777777777761  L 700 19.88888888888868  " stroke-width="2" stroke-dasharray="0" stroke="rgba(217, 0, 27, 1)" fill="none" transform="matrix(1 0 0 1 63 892 )" class="stroke" />
  </g>
</svg>