<?xml version="1.0" encoding="utf-8"?>
<svg version="1.1" xmlns:xlink="http://www.w3.org/1999/xlink" width="689px" height="100px" xmlns="http://www.w3.org/2000/svg">
  <g transform="matrix(1 0 0 1 -830 -939 )">
    <path d="M 0 74.97222222222217  L 32.000000000000114 81.75000000000023  L 51.85185185185185 24.13888888888914  L 77.77777777777783 81.75000000000023  L 101.16666666666687 24.13888888888914  L 129.6296296296298 97  L 144.5 34.305555555555884  L 181.48148148148164 30.916666666666515  L 214.5 13.972222222222399  L 233.33333333333326 47.86111111111131  L 258.66666666666674 97  L 301.9999999999998 76.66666666666652  L 311.1111111111113 58.027777777778056  L 331.1666666666665 13.972222222222399  L 362.9629629629633 74.97222222222217  L 388.8888888888887 47.86111111111131  L 414.81481481481455 42.7777777777776  L 447.83333333333354 0.4999999999997727  L 466.6666666666665 58.027777777778056  L 492.5925925925924 76.66666666666652  L 518.5185185185182 63.11111111111108  L 544.4444444444443 74.97222222222217  L 570.3333333333333 58.027777777778056  L 596.2962962962961 64.80555555555543  L 622.2222222222222 13.972222222222399  L 648.148148148148 24.13888888888914  L 674.0740740740739 42.7777777777776  L 685.3333333333335 64.80555555555543  " stroke-width="2" stroke-dasharray="0" stroke="rgba(245, 154, 35, 1)" fill="none" transform="matrix(1 0 0 1 831 940 )" class="stroke" />
  </g>
</svg>