<?xml version="1.0" encoding="utf-8"?>
<svg version="1.1" xmlns:xlink="http://www.w3.org/1999/xlink" width="104px" height="40px" xmlns="http://www.w3.org/2000/svg">
  <defs>
    <pattern id="BGPattern" patternUnits="userSpaceOnUse" alignment="0 0" imageRepeat="None" />
    <mask fill="white" id="Clip50">
      <path d="M 0 40  L 0 0  L 99 0  C 101.79999999999995 0  104 2.200000000000003  104 5  L 104 35  C 104 37.80000000000001  101.79999999999995 40  99 40  L 69 40  L 64 40  L 0 40  Z " fill-rule="evenodd" />
    </mask>
  </defs>
  <g transform="matrix(1 0 0 1 -453 -84 )">
    <path d="M 0 40  L 0 0  L 99 0  C 101.79999999999995 0  104 2.200000000000003  104 5  L 104 35  C 104 37.80000000000001  101.79999999999995 40  99 40  L 69 40  L 64 40  L 0 40  Z " fill-rule="nonzero" fill="rgba(255, 255, 255, 1)" stroke="none" transform="matrix(1 0 0 1 453 84 )" class="fill" />
    <path d="M 0 40  L 0 0  L 99 0  C 101.79999999999995 0  104 2.200000000000003  104 5  L 104 35  C 104 37.80000000000001  101.79999999999995 40  99 40  L 69 40  L 64 40  L 0 40  Z " stroke-width="2" stroke-dasharray="0" stroke="rgba(140, 140, 140, 1)" fill="none" transform="matrix(1 0 0 1 453 84 )" class="stroke" mask="url(#Clip50)" />
  </g>
</svg>