<?xml version="1.0" encoding="utf-8"?>
<svg version="1.1" xmlns:xlink="http://www.w3.org/1999/xlink" width="30px" height="23px" xmlns="http://www.w3.org/2000/svg">
  <defs>
    <pattern id="BGPattern" patternUnits="userSpaceOnUse" alignment="0 0" imageRepeat="None" />
    <mask fill="white" id="Clip5">
      <path d="M 29.84095982142857 14.94828869047619  C 29.946986607142858 15.056671626984125  30 15.185019841269842  30 15.333333333333336  L 30 18.61904761904762  C 30 18.767361111111114  29.946986607142858 18.895709325396826  29.84095982142857 19.004092261904763  C 29.73493303571429 19.112475198412696  29.609375000000007 19.166666666666668  29.46428571428571 19  L 6.428571428571428 19  L 6.428571428571428 22.452380952380953  C 6.428571428571428 22.600694444444446  6.375558035714286 22.729042658730158  6.26953125 22.837425595238095  C 6.163504464285714 22.94580853174603  6.037946428571429 23  5.892857142857142 23  C 5.758928571428572 23  5.625 22.942956349206348  5.491071428571428 22.828869047619047  L 0.15066964285714288 17.35267857142857  C 0.05022321428571428 17.25  0 17.124503968253965  0 16.976190476190478  C 0 16.81646825396825  0.05022321428571428 16.685267857142858  0.15066964285714288 16.582589285714285  L 5.5078125 11.10639880952381  C 5.608258928571428 11.003720238095239  5.736607142857143 10.952380952380953  5.892857142857142 10.952380952380953  C 6.037946428571429 10.952380952380953  6.163504464285714 11.006572420634921  6.26953125 11.114955357142858  C 6.375558035714286 11.223338293650793  6.428571428571428 11.351686507936506  6.428571428571428 11.5  L 6.428571428571428 14.785714285714285  L 29.46428571428571 14.785714285714285  C 29.609375000000007 14.785714285714285  29.73493303571429 14.839905753968255  29.84095982142857 14.94828869047619  Z M 29.849330357142858 5.630208333333332  C 29.94977678571429 5.732886904761903  30 5.864087301587301  30 6.023809523809523  C 30 6.183531746031744  29.94977678571429 6.314732142857142  29.849330357142858 6.4174107142857135  L 24.4921875 11.89360119047619  C 24.39174107142857 11.996279761904761  24.263392857142858 12.047619047619047  24.107142857142858 12.047619047619047  C 23.962053571428577 12.047619047619047  23.83649553571429 11.993427579365079  23.73046875 11.885044642857142  C 23.624441964285715 11.776661706349206  23.57142857142857 11.648313492063492  23.57142857142857 11.5  L 23.57142857142857 8.214285714285714  L 0.5357142857142857 8.214285714285714  C 0.390625 8.214285714285714  0.2650669642857143 8.160094246031747  0.15904017857142858 8.05171130952381  C 0.053013392857142856 7.943328373015873  0 7.814980158730159  0 7.666666666666668  L 0 4.3809523809523805  C 0 4.232638888888887  0.053013392857142856 4.104290674603173  0.15904017857142858 3.9959077380952386  C 0.2650669642857143 3.8875248015872987  0.390625 3.8333333333333326  0.5357142857142857 4  L 23.57142857142857 4  L 23.57142857142857 0.5476190476190482  C 23.57142857142857 0.387896825396824  23.62165178571429 0.25669642857142894  23.72209821428571 0.15401785714285787  C 23.822544642857142 0.05133928571428681  23.950892857142858 0  24.107142857142858 0  C 24.24107142857143 0  24.375 0.05704365079365059  24.50892857142857 0.17113095238095177  L 29.849330357142858 5.630208333333332  Z " fill-rule="evenodd" />
    </mask>
  </defs>
  <g transform="matrix(1 0 0 1 -835 -3 )">
    <path d="M 29.84095982142857 14.94828869047619  C 29.946986607142858 15.056671626984125  30 15.185019841269842  30 15.333333333333336  L 30 18.61904761904762  C 30 18.767361111111114  29.946986607142858 18.895709325396826  29.84095982142857 19.004092261904763  C 29.73493303571429 19.112475198412696  29.609375000000007 19.166666666666668  29.46428571428571 19  L 6.428571428571428 19  L 6.428571428571428 22.452380952380953  C 6.428571428571428 22.600694444444446  6.375558035714286 22.729042658730158  6.26953125 22.837425595238095  C 6.163504464285714 22.94580853174603  6.037946428571429 23  5.892857142857142 23  C 5.758928571428572 23  5.625 22.942956349206348  5.491071428571428 22.828869047619047  L 0.15066964285714288 17.35267857142857  C 0.05022321428571428 17.25  0 17.124503968253965  0 16.976190476190478  C 0 16.81646825396825  0.05022321428571428 16.685267857142858  0.15066964285714288 16.582589285714285  L 5.5078125 11.10639880952381  C 5.608258928571428 11.003720238095239  5.736607142857143 10.952380952380953  5.892857142857142 10.952380952380953  C 6.037946428571429 10.952380952380953  6.163504464285714 11.006572420634921  6.26953125 11.114955357142858  C 6.375558035714286 11.223338293650793  6.428571428571428 11.351686507936506  6.428571428571428 11.5  L 6.428571428571428 14.785714285714285  L 29.46428571428571 14.785714285714285  C 29.609375000000007 14.785714285714285  29.73493303571429 14.839905753968255  29.84095982142857 14.94828869047619  Z M 29.849330357142858 5.630208333333332  C 29.94977678571429 5.732886904761903  30 5.864087301587301  30 6.023809523809523  C 30 6.183531746031744  29.94977678571429 6.314732142857142  29.849330357142858 6.4174107142857135  L 24.4921875 11.89360119047619  C 24.39174107142857 11.996279761904761  24.263392857142858 12.047619047619047  24.107142857142858 12.047619047619047  C 23.962053571428577 12.047619047619047  23.83649553571429 11.993427579365079  23.73046875 11.885044642857142  C 23.624441964285715 11.776661706349206  23.57142857142857 11.648313492063492  23.57142857142857 11.5  L 23.57142857142857 8.214285714285714  L 0.5357142857142857 8.214285714285714  C 0.390625 8.214285714285714  0.2650669642857143 8.160094246031747  0.15904017857142858 8.05171130952381  C 0.053013392857142856 7.943328373015873  0 7.814980158730159  0 7.666666666666668  L 0 4.3809523809523805  C 0 4.232638888888887  0.053013392857142856 4.104290674603173  0.15904017857142858 3.9959077380952386  C 0.2650669642857143 3.8875248015872987  0.390625 3.8333333333333326  0.5357142857142857 4  L 23.57142857142857 4  L 23.57142857142857 0.5476190476190482  C 23.57142857142857 0.387896825396824  23.62165178571429 0.25669642857142894  23.72209821428571 0.15401785714285787  C 23.822544642857142 0.05133928571428681  23.950892857142858 0  24.107142857142858 0  C 24.24107142857143 0  24.375 0.05704365079365059  24.50892857142857 0.17113095238095177  L 29.849330357142858 5.630208333333332  Z " fill-rule="nonzero" fill="rgba(0, 0, 0, 1)" stroke="none" transform="matrix(1 0 0 1 835 3 )" class="fill" />
    <path d="M 29.84095982142857 14.94828869047619  C 29.946986607142858 15.056671626984125  30 15.185019841269842  30 15.333333333333336  L 30 18.61904761904762  C 30 18.767361111111114  29.946986607142858 18.895709325396826  29.84095982142857 19.004092261904763  C 29.73493303571429 19.112475198412696  29.609375000000007 19.166666666666668  29.46428571428571 19  L 6.428571428571428 19  L 6.428571428571428 22.452380952380953  C 6.428571428571428 22.600694444444446  6.375558035714286 22.729042658730158  6.26953125 22.837425595238095  C 6.163504464285714 22.94580853174603  6.037946428571429 23  5.892857142857142 23  C 5.758928571428572 23  5.625 22.942956349206348  5.491071428571428 22.828869047619047  L 0.15066964285714288 17.35267857142857  C 0.05022321428571428 17.25  0 17.124503968253965  0 16.976190476190478  C 0 16.81646825396825  0.05022321428571428 16.685267857142858  0.15066964285714288 16.582589285714285  L 5.5078125 11.10639880952381  C 5.608258928571428 11.003720238095239  5.736607142857143 10.952380952380953  5.892857142857142 10.952380952380953  C 6.037946428571429 10.952380952380953  6.163504464285714 11.006572420634921  6.26953125 11.114955357142858  C 6.375558035714286 11.223338293650793  6.428571428571428 11.351686507936506  6.428571428571428 11.5  L 6.428571428571428 14.785714285714285  L 29.46428571428571 14.785714285714285  C 29.609375000000007 14.785714285714285  29.73493303571429 14.839905753968255  29.84095982142857 14.94828869047619  Z " stroke-width="0" stroke-dasharray="0" stroke="rgba(255, 255, 255, 0)" fill="none" transform="matrix(1 0 0 1 835 3 )" class="stroke" mask="url(#Clip5)" />
    <path d="M 29.849330357142858 5.630208333333332  C 29.94977678571429 5.732886904761903  30 5.864087301587301  30 6.023809523809523  C 30 6.183531746031744  29.94977678571429 6.314732142857142  29.849330357142858 6.4174107142857135  L 24.4921875 11.89360119047619  C 24.39174107142857 11.996279761904761  24.263392857142858 12.047619047619047  24.107142857142858 12.047619047619047  C 23.962053571428577 12.047619047619047  23.83649553571429 11.993427579365079  23.73046875 11.885044642857142  C 23.624441964285715 11.776661706349206  23.57142857142857 11.648313492063492  23.57142857142857 11.5  L 23.57142857142857 8.214285714285714  L 0.5357142857142857 8.214285714285714  C 0.390625 8.214285714285714  0.2650669642857143 8.160094246031747  0.15904017857142858 8.05171130952381  C 0.053013392857142856 7.943328373015873  0 7.814980158730159  0 7.666666666666668  L 0 4.3809523809523805  C 0 4.232638888888887  0.053013392857142856 4.104290674603173  0.15904017857142858 3.9959077380952386  C 0.2650669642857143 3.8875248015872987  0.390625 3.8333333333333326  0.5357142857142857 4  L 23.57142857142857 4  L 23.57142857142857 0.5476190476190482  C 23.57142857142857 0.387896825396824  23.62165178571429 0.25669642857142894  23.72209821428571 0.15401785714285787  C 23.822544642857142 0.05133928571428681  23.950892857142858 0  24.107142857142858 0  C 24.24107142857143 0  24.375 0.05704365079365059  24.50892857142857 0.17113095238095177  L 29.849330357142858 5.630208333333332  Z " stroke-width="0" stroke-dasharray="0" stroke="rgba(255, 255, 255, 0)" fill="none" transform="matrix(1 0 0 1 835 3 )" class="stroke" mask="url(#Clip5)" />
  </g>
</svg>