<?xml version="1.0" encoding="utf-8"?>
<svg version="1.1" xmlns:xlink="http://www.w3.org/1999/xlink" width="31px" height="28px" xmlns="http://www.w3.org/2000/svg">
  <defs>
    <pattern id="BGPattern" patternUnits="userSpaceOnUse" alignment="0 0" imageRepeat="None" />
    <mask fill="white" id="Clip6">
      <path d="M 19.92857142857143 21.9296875  C 20.078497023809526 21.9296875  20.211123511904766 21.868923611111114  20.326450892857142 21.747395833333336  L 22.85212053571429 19.0859375  C 22.967447916666668 18.964409722222218  23.025111607142858 18.824652777777775  23.025111607142858 18.666666666666668  C 23.025111607142858 18.508680555555557  22.967447916666668 18.368923611111107  22.85212053571429 18.247395833333332  L 18.82142857142857 14  L 22.85212053571429 9.752604166666666  C 22.967447916666668 9.631076388888888  23.025111607142858 9.491319444444443  23.025111607142858 9.333333333333334  C 23.025111607142858 9.175347222222221  22.967447916666668 9.035590277777775  22.85212053571429 8.9140625  L 20.326450892857142 6.252604166666666  C 20.211123511904766 6.1310763888888875  20.078497023809526 6.0703125  19.92857142857143 6.0703125  C 19.778645833333336 6.0703125  19.646019345238095 6.1310763888888875  19.53069196428571 6.252604166666666  L 15.5 10.5  L 11.469308035714285 6.252604166666666  C 11.353980654761907 6.1310763888888875  11.221354166666668 6.0703125  11.071428571428571 6.0703125  C 10.921502976190476 6.0703125  10.788876488095239 6.1310763888888875  10.673549107142856 6.252604166666666  L 8.147879464285715 8.9140625  C 8.032552083333334 9.035590277777775  7.974888392857143 9.175347222222221  7.974888392857143 9.333333333333334  C 7.974888392857143 9.491319444444443  8.032552083333334 9.631076388888888  8.147879464285715 9.752604166666666  L 12.178571428571429 14  L 8.147879464285715 18.247395833333332  C 8.032552083333334 18.368923611111107  7.974888392857143 18.508680555555557  7.974888392857143 18.666666666666668  C 7.974888392857143 18.824652777777775  8.032552083333334 18.964409722222218  8.147879464285715 19.0859375  L 10.673549107142856 21.747395833333336  C 10.788876488095239 21.868923611111114  10.921502976190476 21.9296875  11.071428571428571 21.9296875  C 11.221354166666668 21.9296875  11.353980654761907 21.868923611111114  11.469308035714285 21.747395833333336  L 15.5 17.5  L 19.53069196428571 21.747395833333336  C 19.646019345238095 21.868923611111114  19.778645833333336 21.9296875  19.92857142857143 21.9296875  Z M 30.18694196428571 0.8567708333333344  C 30.72898065476191 1.4279513888888875  31 2.1145833333333344  31 2.9166666666666656  L 31 25.083333333333336  C 31 25.885416666666664  30.72898065476191 26.572048611111114  30.18694196428571 27.143229166666664  C 29.64490327380953 27.71440972222222  28.993303571428577 28  28.232142857142858 28  L 2.767857142857143 28  C 2.006696428571429 28  1.3550967261904763 27.71440972222222  0.8130580357142857 27.143229166666664  C 0.27101934523809523 26.572048611111114  0 25.885416666666664  0 25.083333333333336  L 0 2.9166666666666656  C 0 2.1145833333333344  0.27101934523809523 1.4279513888888875  0.8130580357142857 0.8567708333333344  C 1.3550967261904763 0.285590277777775  2.006696428571429 0  2.767857142857143 0  L 28.232142857142858 0  C 28.993303571428577 0  29.64490327380953 0.285590277777775  30.18694196428571 0.8567708333333344  Z " fill-rule="evenodd" />
    </mask>
  </defs>
  <g transform="matrix(1 0 0 1 -121 0 )">
    <path d="M 19.92857142857143 21.9296875  C 20.078497023809526 21.9296875  20.211123511904766 21.868923611111114  20.326450892857142 21.747395833333336  L 22.85212053571429 19.0859375  C 22.967447916666668 18.964409722222218  23.025111607142858 18.824652777777775  23.025111607142858 18.666666666666668  C 23.025111607142858 18.508680555555557  22.967447916666668 18.368923611111107  22.85212053571429 18.247395833333332  L 18.82142857142857 14  L 22.85212053571429 9.752604166666666  C 22.967447916666668 9.631076388888888  23.025111607142858 9.491319444444443  23.025111607142858 9.333333333333334  C 23.025111607142858 9.175347222222221  22.967447916666668 9.035590277777775  22.85212053571429 8.9140625  L 20.326450892857142 6.252604166666666  C 20.211123511904766 6.1310763888888875  20.078497023809526 6.0703125  19.92857142857143 6.0703125  C 19.778645833333336 6.0703125  19.646019345238095 6.1310763888888875  19.53069196428571 6.252604166666666  L 15.5 10.5  L 11.469308035714285 6.252604166666666  C 11.353980654761907 6.1310763888888875  11.221354166666668 6.0703125  11.071428571428571 6.0703125  C 10.921502976190476 6.0703125  10.788876488095239 6.1310763888888875  10.673549107142856 6.252604166666666  L 8.147879464285715 8.9140625  C 8.032552083333334 9.035590277777775  7.974888392857143 9.175347222222221  7.974888392857143 9.333333333333334  C 7.974888392857143 9.491319444444443  8.032552083333334 9.631076388888888  8.147879464285715 9.752604166666666  L 12.178571428571429 14  L 8.147879464285715 18.247395833333332  C 8.032552083333334 18.368923611111107  7.974888392857143 18.508680555555557  7.974888392857143 18.666666666666668  C 7.974888392857143 18.824652777777775  8.032552083333334 18.964409722222218  8.147879464285715 19.0859375  L 10.673549107142856 21.747395833333336  C 10.788876488095239 21.868923611111114  10.921502976190476 21.9296875  11.071428571428571 21.9296875  C 11.221354166666668 21.9296875  11.353980654761907 21.868923611111114  11.469308035714285 21.747395833333336  L 15.5 17.5  L 19.53069196428571 21.747395833333336  C 19.646019345238095 21.868923611111114  19.778645833333336 21.9296875  19.92857142857143 21.9296875  Z M 30.18694196428571 0.8567708333333344  C 30.72898065476191 1.4279513888888875  31 2.1145833333333344  31 2.9166666666666656  L 31 25.083333333333336  C 31 25.885416666666664  30.72898065476191 26.572048611111114  30.18694196428571 27.143229166666664  C 29.64490327380953 27.71440972222222  28.993303571428577 28  28.232142857142858 28  L 2.767857142857143 28  C 2.006696428571429 28  1.3550967261904763 27.71440972222222  0.8130580357142857 27.143229166666664  C 0.27101934523809523 26.572048611111114  0 25.885416666666664  0 25.083333333333336  L 0 2.9166666666666656  C 0 2.1145833333333344  0.27101934523809523 1.4279513888888875  0.8130580357142857 0.8567708333333344  C 1.3550967261904763 0.285590277777775  2.006696428571429 0  2.767857142857143 0  L 28.232142857142858 0  C 28.993303571428577 0  29.64490327380953 0.285590277777775  30.18694196428571 0.8567708333333344  Z " fill-rule="nonzero" fill="rgba(85, 85, 85, 1)" stroke="none" transform="matrix(1 0 0 1 121 0 )" class="fill" />
    <path d="M 19.92857142857143 21.9296875  C 20.078497023809526 21.9296875  20.211123511904766 21.868923611111114  20.326450892857142 21.747395833333336  L 22.85212053571429 19.0859375  C 22.967447916666668 18.964409722222218  23.025111607142858 18.824652777777775  23.025111607142858 18.666666666666668  C 23.025111607142858 18.508680555555557  22.967447916666668 18.368923611111107  22.85212053571429 18.247395833333332  L 18.82142857142857 14  L 22.85212053571429 9.752604166666666  C 22.967447916666668 9.631076388888888  23.025111607142858 9.491319444444443  23.025111607142858 9.333333333333334  C 23.025111607142858 9.175347222222221  22.967447916666668 9.035590277777775  22.85212053571429 8.9140625  L 20.326450892857142 6.252604166666666  C 20.211123511904766 6.1310763888888875  20.078497023809526 6.0703125  19.92857142857143 6.0703125  C 19.778645833333336 6.0703125  19.646019345238095 6.1310763888888875  19.53069196428571 6.252604166666666  L 15.5 10.5  L 11.469308035714285 6.252604166666666  C 11.353980654761907 6.1310763888888875  11.221354166666668 6.0703125  11.071428571428571 6.0703125  C 10.921502976190476 6.0703125  10.788876488095239 6.1310763888888875  10.673549107142856 6.252604166666666  L 8.147879464285715 8.9140625  C 8.032552083333334 9.035590277777775  7.974888392857143 9.175347222222221  7.974888392857143 9.333333333333334  C 7.974888392857143 9.491319444444443  8.032552083333334 9.631076388888888  8.147879464285715 9.752604166666666  L 12.178571428571429 14  L 8.147879464285715 18.247395833333332  C 8.032552083333334 18.368923611111107  7.974888392857143 18.508680555555557  7.974888392857143 18.666666666666668  C 7.974888392857143 18.824652777777775  8.032552083333334 18.964409722222218  8.147879464285715 19.0859375  L 10.673549107142856 21.747395833333336  C 10.788876488095239 21.868923611111114  10.921502976190476 21.9296875  11.071428571428571 21.9296875  C 11.221354166666668 21.9296875  11.353980654761907 21.868923611111114  11.469308035714285 21.747395833333336  L 15.5 17.5  L 19.53069196428571 21.747395833333336  C 19.646019345238095 21.868923611111114  19.778645833333336 21.9296875  19.92857142857143 21.9296875  Z " stroke-width="0" stroke-dasharray="0" stroke="rgba(255, 255, 255, 0)" fill="none" transform="matrix(1 0 0 1 121 0 )" class="stroke" mask="url(#Clip6)" />
    <path d="M 30.18694196428571 0.8567708333333344  C 30.72898065476191 1.4279513888888875  31 2.1145833333333344  31 2.9166666666666656  L 31 25.083333333333336  C 31 25.885416666666664  30.72898065476191 26.572048611111114  30.18694196428571 27.143229166666664  C 29.64490327380953 27.71440972222222  28.993303571428577 28  28.232142857142858 28  L 2.767857142857143 28  C 2.006696428571429 28  1.3550967261904763 27.71440972222222  0.8130580357142857 27.143229166666664  C 0.27101934523809523 26.572048611111114  0 25.885416666666664  0 25.083333333333336  L 0 2.9166666666666656  C 0 2.1145833333333344  0.27101934523809523 1.4279513888888875  0.8130580357142857 0.8567708333333344  C 1.3550967261904763 0.285590277777775  2.006696428571429 0  2.767857142857143 0  L 28.232142857142858 0  C 28.993303571428577 0  29.64490327380953 0.285590277777775  30.18694196428571 0.8567708333333344  Z " stroke-width="0" stroke-dasharray="0" stroke="rgba(255, 255, 255, 0)" fill="none" transform="matrix(1 0 0 1 121 0 )" class="stroke" mask="url(#Clip6)" />
  </g>
</svg>