<?xml version="1.0" encoding="utf-8"?>
<svg version="1.1" xmlns:xlink="http://www.w3.org/1999/xlink" width="35px" height="47px" xmlns="http://www.w3.org/2000/svg">
  <g transform="matrix(1 0 0 1 -317 -114 )">
    <path d="M 317 114  L 352 114  L 352 161  L 317 161  L 317 114  " fill-rule="nonzero" fill="rgba(204, 204, 204, 1)" stroke="none" class="fill" />
    <path d="M 319 116  L 350 116  L 350 159  L 319 159  L 319 116  " fill-rule="nonzero" fill="rgba(255, 255, 255, 1)" stroke="none" class="fill" />
    <path d="M 337.825 126.3  C 336.35499999999996 126.3  335.2 125.145  335.2 123.675  C 335.2 122.205  336.35499999999996 121.05  337.825 121.05  C 339.295 121.05  340.45 122.205  340.45 123.675  C 340.45 125.145  339.295 126.3  337.825 126.3  " fill-rule="nonzero" fill="rgba(204, 204, 204, 1)" stroke="none" class="fill" />
    <path d="M 320 158  L 320 135.45  L 327.25 125.19999999999999  L 337.4 133.4  L 343.2 131.35  L 349 133.4  L 349 158  L 320 158  " fill-rule="nonzero" fill="rgba(22, 155, 213, 1)" stroke="none" class="fill" />
  </g>
</svg>