<?xml version="1.0" encoding="utf-8"?>
<svg version="1.1" xmlns:xlink="http://www.w3.org/1999/xlink" width="30px" height="19px" xmlns="http://www.w3.org/2000/svg">
  <defs>
    <pattern id="BGPattern" patternUnits="userSpaceOnUse" alignment="0 0" imageRepeat="None" />
    <mask fill="white" id="Clip197">
      <path d="M 0.7470703125 13.188671874999999  C 0.2490234375 12.016015625  0 10.786458333333332  0 9.5  C 0 8.213541666666666  0.2490234375 6.9839843749999995  0.7470703125 5.811328125000001  C 1.2451171875000002 4.638671875  1.91162109375 3.6292968750000005  2.74658203125 2.783203125  C 3.5815429687500004 1.9371093749999995  4.57763671875 1.26171875  5.73486328125 0.7570312499999992  C 6.892089843750001 0.2523437500000004  8.10546875 0  9.375 0  L 20.625 0  C 21.89453125 0  23.10791015625 0.2523437500000004  24.26513671875 0.7570312499999992  C 25.42236328125 1.26171875  26.41845703125 1.9371093749999995  27.25341796875 2.783203125  C 28.08837890625 3.6292968750000005  28.7548828125 4.638671875  29.2529296875 5.811328125000001  C 29.7509765625 6.9839843749999995  30 8.213541666666666  30 9.5  C 30 10.786458333333332  29.7509765625 12.016015625  29.2529296875 13.188671874999999  C 28.7548828125 14.361328125  28.08837890625 15.370703125  27.25341796875 16.216796875  C 26.41845703125 17.062890625  25.42236328125 17.73828125  24.26513671875 18.24296875  C 23.10791015625 18.74765625  21.89453125 19  20.625 19  L 9.375 19  C 8.10546875 19  6.892089843750001 18.74765625  5.73486328125 18.24296875  C 4.57763671875 17.73828125  3.5815429687500004 17.062890625  2.74658203125 16.216796875  C 1.91162109375 15.370703125  1.2451171875000002 14.361328125  0.7470703125 13.188671874999999  Z M 17.71728515625 16.498828125  C 18.64013671875 16.899609375  19.609375 17.1  20.625 17.1  C 21.640625000000004 17.1  22.60986328125 16.899609375  23.53271484375 16.498828125  C 24.455566406250004 16.098046875  25.253906250000004 15.55625  25.927734375 14.8734375  C 26.601562500000004 14.190624999999999  27.136230468750004 13.381640625000001  27.53173828125 12.446484374999999  C 27.927246093750004 11.511328125  28.125000000000004 10.529166666666665  28.125 9.5  C 28.125000000000004 8.470833333333333  27.927246093750004 7.4886718750000005  27.53173828125 6.553515625000001  C 27.136230468750004 5.618359374999999  26.601562500000004 4.809374999999998  25.927734375 4.1265624999999995  C 25.253906250000004 3.4437500000000005  24.455566406250004 2.9019531249999995  23.53271484375 2.501171874999999  C 22.60986328125 2.100390625000001  21.640625000000004 1.8999999999999995  20.625 1.8999999999999995  C 19.609375 1.8999999999999995  18.64013671875 2.100390625000001  17.71728515625 2.501171874999999  C 16.79443359375 2.9019531249999995  15.99609375 3.4437500000000005  15.322265625 4.1265624999999995  C 14.6484375 4.809374999999998  14.11376953125 5.618359374999999  13.71826171875 6.553515625000001  C 13.32275390625 7.4886718750000005  13.125 8.470833333333333  13.125 9.5  C 13.125 10.529166666666665  13.32275390625 11.511328125  13.71826171875 12.446484374999999  C 14.11376953125 13.381640625000001  14.6484375 14.190624999999999  15.322265625 14.8734375  C 15.99609375 15.55625  16.79443359375 16.098046875  17.71728515625 16.498828125  Z " fill-rule="evenodd" />
    </mask>
  </defs>
  <g transform="matrix(1 0 0 1 -585 -128 )">
    <path d="M 0.7470703125 13.188671874999999  C 0.2490234375 12.016015625  0 10.786458333333332  0 9.5  C 0 8.213541666666666  0.2490234375 6.9839843749999995  0.7470703125 5.811328125000001  C 1.2451171875000002 4.638671875  1.91162109375 3.6292968750000005  2.74658203125 2.783203125  C 3.5815429687500004 1.9371093749999995  4.57763671875 1.26171875  5.73486328125 0.7570312499999992  C 6.892089843750001 0.2523437500000004  8.10546875 0  9.375 0  L 20.625 0  C 21.89453125 0  23.10791015625 0.2523437500000004  24.26513671875 0.7570312499999992  C 25.42236328125 1.26171875  26.41845703125 1.9371093749999995  27.25341796875 2.783203125  C 28.08837890625 3.6292968750000005  28.7548828125 4.638671875  29.2529296875 5.811328125000001  C 29.7509765625 6.9839843749999995  30 8.213541666666666  30 9.5  C 30 10.786458333333332  29.7509765625 12.016015625  29.2529296875 13.188671874999999  C 28.7548828125 14.361328125  28.08837890625 15.370703125  27.25341796875 16.216796875  C 26.41845703125 17.062890625  25.42236328125 17.73828125  24.26513671875 18.24296875  C 23.10791015625 18.74765625  21.89453125 19  20.625 19  L 9.375 19  C 8.10546875 19  6.892089843750001 18.74765625  5.73486328125 18.24296875  C 4.57763671875 17.73828125  3.5815429687500004 17.062890625  2.74658203125 16.216796875  C 1.91162109375 15.370703125  1.2451171875000002 14.361328125  0.7470703125 13.188671874999999  Z M 17.71728515625 16.498828125  C 18.64013671875 16.899609375  19.609375 17.1  20.625 17.1  C 21.640625000000004 17.1  22.60986328125 16.899609375  23.53271484375 16.498828125  C 24.455566406250004 16.098046875  25.253906250000004 15.55625  25.927734375 14.8734375  C 26.601562500000004 14.190624999999999  27.136230468750004 13.381640625000001  27.53173828125 12.446484374999999  C 27.927246093750004 11.511328125  28.125000000000004 10.529166666666665  28.125 9.5  C 28.125000000000004 8.470833333333333  27.927246093750004 7.4886718750000005  27.53173828125 6.553515625000001  C 27.136230468750004 5.618359374999999  26.601562500000004 4.809374999999998  25.927734375 4.1265624999999995  C 25.253906250000004 3.4437500000000005  24.455566406250004 2.9019531249999995  23.53271484375 2.501171874999999  C 22.60986328125 2.100390625000001  21.640625000000004 1.8999999999999995  20.625 1.8999999999999995  C 19.609375 1.8999999999999995  18.64013671875 2.100390625000001  17.71728515625 2.501171874999999  C 16.79443359375 2.9019531249999995  15.99609375 3.4437500000000005  15.322265625 4.1265624999999995  C 14.6484375 4.809374999999998  14.11376953125 5.618359374999999  13.71826171875 6.553515625000001  C 13.32275390625 7.4886718750000005  13.125 8.470833333333333  13.125 9.5  C 13.125 10.529166666666665  13.32275390625 11.511328125  13.71826171875 12.446484374999999  C 14.11376953125 13.381640625000001  14.6484375 14.190624999999999  15.322265625 14.8734375  C 15.99609375 15.55625  16.79443359375 16.098046875  17.71728515625 16.498828125  Z " fill-rule="nonzero" fill="rgba(0, 0, 0, 1)" stroke="none" transform="matrix(1 0 0 1 585 128 )" class="fill" />
    <path d="M 0.7470703125 13.188671874999999  C 0.2490234375 12.016015625  0 10.786458333333332  0 9.5  C 0 8.213541666666666  0.2490234375 6.9839843749999995  0.7470703125 5.811328125000001  C 1.2451171875000002 4.638671875  1.91162109375 3.6292968750000005  2.74658203125 2.783203125  C 3.5815429687500004 1.9371093749999995  4.57763671875 1.26171875  5.73486328125 0.7570312499999992  C 6.892089843750001 0.2523437500000004  8.10546875 0  9.375 0  L 20.625 0  C 21.89453125 0  23.10791015625 0.2523437500000004  24.26513671875 0.7570312499999992  C 25.42236328125 1.26171875  26.41845703125 1.9371093749999995  27.25341796875 2.783203125  C 28.08837890625 3.6292968750000005  28.7548828125 4.638671875  29.2529296875 5.811328125000001  C 29.7509765625 6.9839843749999995  30 8.213541666666666  30 9.5  C 30 10.786458333333332  29.7509765625 12.016015625  29.2529296875 13.188671874999999  C 28.7548828125 14.361328125  28.08837890625 15.370703125  27.25341796875 16.216796875  C 26.41845703125 17.062890625  25.42236328125 17.73828125  24.26513671875 18.24296875  C 23.10791015625 18.74765625  21.89453125 19  20.625 19  L 9.375 19  C 8.10546875 19  6.892089843750001 18.74765625  5.73486328125 18.24296875  C 4.57763671875 17.73828125  3.5815429687500004 17.062890625  2.74658203125 16.216796875  C 1.91162109375 15.370703125  1.2451171875000002 14.361328125  0.7470703125 13.188671874999999  Z " stroke-width="0" stroke-dasharray="0" stroke="rgba(255, 255, 255, 0)" fill="none" transform="matrix(1 0 0 1 585 128 )" class="stroke" mask="url(#Clip197)" />
    <path d="M 17.71728515625 16.498828125  C 18.64013671875 16.899609375  19.609375 17.1  20.625 17.1  C 21.640625000000004 17.1  22.60986328125 16.899609375  23.53271484375 16.498828125  C 24.455566406250004 16.098046875  25.253906250000004 15.55625  25.927734375 14.8734375  C 26.601562500000004 14.190624999999999  27.136230468750004 13.381640625000001  27.53173828125 12.446484374999999  C 27.927246093750004 11.511328125  28.125000000000004 10.529166666666665  28.125 9.5  C 28.125000000000004 8.470833333333333  27.927246093750004 7.4886718750000005  27.53173828125 6.553515625000001  C 27.136230468750004 5.618359374999999  26.601562500000004 4.809374999999998  25.927734375 4.1265624999999995  C 25.253906250000004 3.4437500000000005  24.455566406250004 2.9019531249999995  23.53271484375 2.501171874999999  C 22.60986328125 2.100390625000001  21.640625000000004 1.8999999999999995  20.625 1.8999999999999995  C 19.609375 1.8999999999999995  18.64013671875 2.100390625000001  17.71728515625 2.501171874999999  C 16.79443359375 2.9019531249999995  15.99609375 3.4437500000000005  15.322265625 4.1265624999999995  C 14.6484375 4.809374999999998  14.11376953125 5.618359374999999  13.71826171875 6.553515625000001  C 13.32275390625 7.4886718750000005  13.125 8.470833333333333  13.125 9.5  C 13.125 10.529166666666665  13.32275390625 11.511328125  13.71826171875 12.446484374999999  C 14.11376953125 13.381640625000001  14.6484375 14.190624999999999  15.322265625 14.8734375  C 15.99609375 15.55625  16.79443359375 16.098046875  17.71728515625 16.498828125  Z " stroke-width="0" stroke-dasharray="0" stroke="rgba(255, 255, 255, 0)" fill="none" transform="matrix(1 0 0 1 585 128 )" class="stroke" mask="url(#Clip197)" />
  </g>
</svg>