<?xml version="1.0" encoding="utf-8"?>
<svg version="1.1" xmlns:xlink="http://www.w3.org/1999/xlink" width="14px" height="14px" xmlns="http://www.w3.org/2000/svg">
  <defs>
    <pattern id="BGPattern" patternUnits="userSpaceOnUse" alignment="0 0" imageRepeat="None" />
  </defs>
  <g transform="matrix(1 0 0 1 -22 -185 )">
    <path d="M 0 2.0000000000000004  A 2 2 0 0 1 1.9999999999999996 0 L 12 0  A 2 2 0 0 1 14 2 L 14 12  A 2 2 0 0 1 12 14 L 2 14  A 2 2 0 0 1 0 12 L 0 2  Z " fill-rule="nonzero" fill="rgba(255, 255, 255, 1)" stroke="none" transform="matrix(1 0 0 1 22 185 )" class="fill" />
    <path d="M 0.5 2.0000000000000004  A 1.5 1.5 0 0 1 1.9999999999999996 0.5 L 12 0.5  A 1.5 1.5 0 0 1 13.5 2 L 13.5 12  A 1.5 1.5 0 0 1 12 13.5 L 2 13.5  A 1.5 1.5 0 0 1 0.5 12 L 0.5 2  Z " stroke-width="1" stroke-dasharray="0" stroke="rgba(30, 152, 215, 1)" fill="none" transform="matrix(1 0 0 1 22 185 )" class="stroke" stroke-dashoffset="0.5" />
    <path d="M 3 7  L 6 10  L 11 3  " stroke-width="3" stroke-dasharray="0" stroke="rgba(30, 152, 215, 1)" fill="none" transform="matrix(1 0 0 1 22 185 )" class="stroke btn_check" />
  </g>
</svg>