<?xml version="1.0" encoding="utf-8"?>
<svg version="1.1" xmlns:xlink="http://www.w3.org/1999/xlink" width="35px" height="35px" xmlns="http://www.w3.org/2000/svg">
  <g transform="matrix(1 0 0 1 -837 -294 )">
    <path d="M 837 294  L 872 294  L 872 329  L 837 329  L 837 294  " fill-rule="nonzero" fill="rgba(204, 204, 204, 1)" stroke="none" class="fill" />
    <path d="M 839 296  L 870 296  L 870 327  L 839 327  L 839 296  " fill-rule="nonzero" fill="rgba(255, 255, 255, 1)" stroke="none" class="fill" />
    <path d="M 857.825 304.5  C 856.355 304.5  855.2 303.345  855.2 301.875  C 855.2 300.405  856.355 299.25  857.825 299.25  C 859.2950000000001 299.25  860.45 300.405  860.45 301.875  C 860.45 303.345  859.2950000000001 304.5  857.825 304.5  " fill-rule="nonzero" fill="rgba(204, 204, 204, 1)" stroke="none" class="fill" />
    <path d="M 840 326  L 840 310.05  L 847.25 302.8  L 857.4 308.6  L 863.2 307.15  L 869 308.6  L 869 326  L 840 326  " fill-rule="nonzero" fill="rgba(22, 155, 213, 1)" stroke="none" class="fill" />
  </g>
</svg>