<?xml version="1.0" encoding="utf-8"?>
<svg version="1.1" xmlns:xlink="http://www.w3.org/1999/xlink" width="21px" height="23px" xmlns="http://www.w3.org/2000/svg">
  <defs>
    <pattern id="BGPattern" patternUnits="userSpaceOnUse" alignment="0 0" imageRepeat="None" />
    <mask fill="white" id="Clip200">
      <path d="M 20.763822115384563 14.010491071428472  C 20.807091346153896 13.563839285714236  20.42848557692313 13.18392857142847  19.957932692307796 13.18392857142847  C 19.541466346153953 13.18392857142847  19.18449519230785 13.486830357142708  19.152043269230663 13.882142857142709  C 18.778846153846153 18.1484375  14.998197115384722 21.475223214285762  10.400841346154003 21.475223214285762  C 5.560096153846049 21.475223214285762  1.6171875000001574 17.75825892857153  1.6171875000001574 13.1890625  C 1.6171875000001574 8.691741071428472  5.435697115384667 5.015848214285764  10.173677884615543 4.902901785714236  C 10.298076923076923 4.897767857142708  10.395432692307745 4.990178571428472  10.395432692307745 5.108258928571528  L 10.395432692307745 7.690625  C 10.395432692307745 8.3375  11.147235576923023 8.727678571428472  11.725961538461695 8.383705357142707  L 16.929086538461643 4.928571428571528  C 17.46995192307687 4.6051339285715285  17.46995192307687 3.8607142857142356  16.929086538461643 3.537276785714236  L 11.731370192307589 0.1283482142857641  C 11.152644230769283 -0.21562499999999998  10.400841346154003 0.17455357142847183  10.400841346154003 0.8214285714284718  L 10.400841346154003 3.1676339285715285  C 10.400841346154003 3.2805803571427075  10.308894230769074 3.372991071428472  10.189903846153952 3.372991071428472  C 4.543269230769231 3.4808035714284715  0 7.8343750000000005  0 13.1890625  C 0 18.61049107142847  4.656850961538462 23  10.400841346154003 23  C 15.852764423077081 23  20.320312500000156 19.062276785714236  20.763822115384563 14.010491071428472  Z " fill-rule="evenodd" />
    </mask>
  </defs>
  <g transform="matrix(1 0 0 1 -459 -11 )">
    <path d="M 20.763822115384563 14.010491071428472  C 20.807091346153896 13.563839285714236  20.42848557692313 13.18392857142847  19.957932692307796 13.18392857142847  C 19.541466346153953 13.18392857142847  19.18449519230785 13.486830357142708  19.152043269230663 13.882142857142709  C 18.778846153846153 18.1484375  14.998197115384722 21.475223214285762  10.400841346154003 21.475223214285762  C 5.560096153846049 21.475223214285762  1.6171875000001574 17.75825892857153  1.6171875000001574 13.1890625  C 1.6171875000001574 8.691741071428472  5.435697115384667 5.015848214285764  10.173677884615543 4.902901785714236  C 10.298076923076923 4.897767857142708  10.395432692307745 4.990178571428472  10.395432692307745 5.108258928571528  L 10.395432692307745 7.690625  C 10.395432692307745 8.3375  11.147235576923023 8.727678571428472  11.725961538461695 8.383705357142707  L 16.929086538461643 4.928571428571528  C 17.46995192307687 4.6051339285715285  17.46995192307687 3.8607142857142356  16.929086538461643 3.537276785714236  L 11.731370192307589 0.1283482142857641  C 11.152644230769283 -0.21562499999999998  10.400841346154003 0.17455357142847183  10.400841346154003 0.8214285714284718  L 10.400841346154003 3.1676339285715285  C 10.400841346154003 3.2805803571427075  10.308894230769074 3.372991071428472  10.189903846153952 3.372991071428472  C 4.543269230769231 3.4808035714284715  0 7.8343750000000005  0 13.1890625  C 0 18.61049107142847  4.656850961538462 23  10.400841346154003 23  C 15.852764423077081 23  20.320312500000156 19.062276785714236  20.763822115384563 14.010491071428472  Z " fill-rule="nonzero" fill="rgba(255, 255, 255, 1)" stroke="none" transform="matrix(1 0 0 1 459 11 )" class="fill" />
    <path d="M 20.763822115384563 14.010491071428472  C 20.807091346153896 13.563839285714236  20.42848557692313 13.18392857142847  19.957932692307796 13.18392857142847  C 19.541466346153953 13.18392857142847  19.18449519230785 13.486830357142708  19.152043269230663 13.882142857142709  C 18.778846153846153 18.1484375  14.998197115384722 21.475223214285762  10.400841346154003 21.475223214285762  C 5.560096153846049 21.475223214285762  1.6171875000001574 17.75825892857153  1.6171875000001574 13.1890625  C 1.6171875000001574 8.691741071428472  5.435697115384667 5.015848214285764  10.173677884615543 4.902901785714236  C 10.298076923076923 4.897767857142708  10.395432692307745 4.990178571428472  10.395432692307745 5.108258928571528  L 10.395432692307745 7.690625  C 10.395432692307745 8.3375  11.147235576923023 8.727678571428472  11.725961538461695 8.383705357142707  L 16.929086538461643 4.928571428571528  C 17.46995192307687 4.6051339285715285  17.46995192307687 3.8607142857142356  16.929086538461643 3.537276785714236  L 11.731370192307589 0.1283482142857641  C 11.152644230769283 -0.21562499999999998  10.400841346154003 0.17455357142847183  10.400841346154003 0.8214285714284718  L 10.400841346154003 3.1676339285715285  C 10.400841346154003 3.2805803571427075  10.308894230769074 3.372991071428472  10.189903846153952 3.372991071428472  C 4.543269230769231 3.4808035714284715  0 7.8343750000000005  0 13.1890625  C 0 18.61049107142847  4.656850961538462 23  10.400841346154003 23  C 15.852764423077081 23  20.320312500000156 19.062276785714236  20.763822115384563 14.010491071428472  Z " stroke-width="0" stroke-dasharray="0" stroke="rgba(255, 255, 255, 0)" fill="none" transform="matrix(1 0 0 1 459 11 )" class="stroke" mask="url(#Clip200)" />
  </g>
</svg>