<?xml version="1.0" encoding="utf-8"?>
<svg version="1.1" xmlns:xlink="http://www.w3.org/1999/xlink" width="26px" height="30px" xmlns="http://www.w3.org/2000/svg">
  <defs>
    <pattern id="BGPattern" patternUnits="userSpaceOnUse" alignment="0 0" imageRepeat="None" />
    <mask fill="white" id="Clip193">
      <path d="M 25.70758928571422 18.27455357142844  C 25.76116071428578 17.69196428571422  25.29241071428578 17.19642857142844  24.70982142857156 17.19642857142844  C 24.19419642857156 17.19642857142844  23.752232142857338 17.591517857142662  23.71205357142844 18.107142857142662  C 23.25 23.671875  18.56919642857156 28.01116071428578  12.877232142857338 28.01116071428578  C 6.8839285714284415 28.01116071428578  2.0022321428573377 23.16294642857156  2.0022321428573377 17.203125  C 2.0022321428573377 11.337053571428442  6.729910714285779 6.542410714285779  12.595982142857338 6.395089285714221  C 12.75 6.388392857142662  12.87053571428578 6.5089285714284415  12.87053571428578 6.6629464285715585  L 12.87053571428578 10.03125  C 12.87053571428578 10.875  13.80133928571422 11.383928571428442  14.517857142857336 10.935267857142662  L 20.95982142857156 6.4285714285715585  C 21.62946428571422 6.0066964285715585  21.62946428571422 5.035714285714221  20.95982142857156 4.613839285714221  L 14.524553571428443 0.16741071428577925  C 13.80803571428578 -0.28125  12.877232142857338 0.2276785714284415  12.877232142857338 1.0714285714284415  L 12.877232142857338 4.1316964285715585  C 12.877232142857338 4.279017857142662  12.763392857142662 4.3995535714284415  12.616071428571558 4.3995535714284415  C 5.625 4.5401785714284415  0 10.21875  0 17.203125  C 0 24.27455357142844  5.765625 30  12.877232142857338 30  C 19.627232142857338 30  25.158482142857338 24.86383928571422  25.70758928571422 18.27455357142844  Z " fill-rule="evenodd" />
    </mask>
  </defs>
  <g transform="matrix(1 0 0 1 -725 -69 )">
    <path d="M 25.70758928571422 18.27455357142844  C 25.76116071428578 17.69196428571422  25.29241071428578 17.19642857142844  24.70982142857156 17.19642857142844  C 24.19419642857156 17.19642857142844  23.752232142857338 17.591517857142662  23.71205357142844 18.107142857142662  C 23.25 23.671875  18.56919642857156 28.01116071428578  12.877232142857338 28.01116071428578  C 6.8839285714284415 28.01116071428578  2.0022321428573377 23.16294642857156  2.0022321428573377 17.203125  C 2.0022321428573377 11.337053571428442  6.729910714285779 6.542410714285779  12.595982142857338 6.395089285714221  C 12.75 6.388392857142662  12.87053571428578 6.5089285714284415  12.87053571428578 6.6629464285715585  L 12.87053571428578 10.03125  C 12.87053571428578 10.875  13.80133928571422 11.383928571428442  14.517857142857336 10.935267857142662  L 20.95982142857156 6.4285714285715585  C 21.62946428571422 6.0066964285715585  21.62946428571422 5.035714285714221  20.95982142857156 4.613839285714221  L 14.524553571428443 0.16741071428577925  C 13.80803571428578 -0.28125  12.877232142857338 0.2276785714284415  12.877232142857338 1.0714285714284415  L 12.877232142857338 4.1316964285715585  C 12.877232142857338 4.279017857142662  12.763392857142662 4.3995535714284415  12.616071428571558 4.3995535714284415  C 5.625 4.5401785714284415  0 10.21875  0 17.203125  C 0 24.27455357142844  5.765625 30  12.877232142857338 30  C 19.627232142857338 30  25.158482142857338 24.86383928571422  25.70758928571422 18.27455357142844  Z " fill-rule="nonzero" fill="rgba(255, 255, 255, 1)" stroke="none" transform="matrix(1 0 0 1 725 69 )" class="fill" />
    <path d="M 25.70758928571422 18.27455357142844  C 25.76116071428578 17.69196428571422  25.29241071428578 17.19642857142844  24.70982142857156 17.19642857142844  C 24.19419642857156 17.19642857142844  23.752232142857338 17.591517857142662  23.71205357142844 18.107142857142662  C 23.25 23.671875  18.56919642857156 28.01116071428578  12.877232142857338 28.01116071428578  C 6.8839285714284415 28.01116071428578  2.0022321428573377 23.16294642857156  2.0022321428573377 17.203125  C 2.0022321428573377 11.337053571428442  6.729910714285779 6.542410714285779  12.595982142857338 6.395089285714221  C 12.75 6.388392857142662  12.87053571428578 6.5089285714284415  12.87053571428578 6.6629464285715585  L 12.87053571428578 10.03125  C 12.87053571428578 10.875  13.80133928571422 11.383928571428442  14.517857142857336 10.935267857142662  L 20.95982142857156 6.4285714285715585  C 21.62946428571422 6.0066964285715585  21.62946428571422 5.035714285714221  20.95982142857156 4.613839285714221  L 14.524553571428443 0.16741071428577925  C 13.80803571428578 -0.28125  12.877232142857338 0.2276785714284415  12.877232142857338 1.0714285714284415  L 12.877232142857338 4.1316964285715585  C 12.877232142857338 4.279017857142662  12.763392857142662 4.3995535714284415  12.616071428571558 4.3995535714284415  C 5.625 4.5401785714284415  0 10.21875  0 17.203125  C 0 24.27455357142844  5.765625 30  12.877232142857338 30  C 19.627232142857338 30  25.158482142857338 24.86383928571422  25.70758928571422 18.27455357142844  Z " stroke-width="0" stroke-dasharray="0" stroke="rgba(255, 255, 255, 0)" fill="none" transform="matrix(1 0 0 1 725 69 )" class="stroke" mask="url(#Clip193)" />
  </g>
</svg>