<?xml version="1.0" encoding="utf-8"?>
<svg version="1.1" xmlns:xlink="http://www.w3.org/1999/xlink" width="25px" height="23px" xmlns="http://www.w3.org/2000/svg">
  <defs>
    <pattern id="BGPattern" patternUnits="userSpaceOnUse" alignment="0 0" imageRepeat="None" />
    <mask fill="white" id="Clip201">
      <path d="M 24.603896103895977 22.731168831168702  C 25.03246753246742 22.354805194805234  25.045454545454504 21.733506493506525  24.642857142857224 21.339220779220796  L 17.70779220779218 14.899220779220899  C 19.064935064935185 13.3340259740261  19.883116883116827 11.350649350649336  19.883116883116827 9.19402597402603  C 19.883116883116827 4.1459740259740405  15.435064935064702 0.05376623376625957  9.941558441558414 0.05376623376625957  C 4.448051948052125 0.05376623376625957  0 4.151948051948011  0 9.200000000000001  C 0 14.24805194805199  4.448051948052125 18.340259740259597  9.941558441558414 18.340259740259597  C 12.318181818181984 18.340259740259597  14.493506493506631 17.57558441558437  16.20779220779241 16.297142857142777  L 23.09740259740238 22.695324675324702  C 23.30519480519456 22.89844155844145  23.590909090909236 23  23.870129870130086 23  C 24.136363636363853 23  24.40259740259762 22.910389610389743  24.603896103895977 22.731168831168702  Z M 15.461038961038867 14.271948051947872  C 13.987012987013259 15.628051948052128  12.025974025974051 16.374805194805095  9.941558441558414 16.374805194805095  C 7.857142857142777 16.374805194805095  5.896103896104137 15.628051948052128  4.4220779220779605 14.271948051947872  C 2.948051948051784 12.91584415584414  2.1363636363633987 11.111688311688416  2.1363636363633987 9.200000000000001  C 2.1363636363633987 7.282337662337613  2.948051948051784 5.478181818181717  4.4220779220779605 4.1280519480521285  C 5.896103896104137 2.771948051947872  7.857142857142777 2.025194805194906  9.941558441558414 2.025194805194906  C 12.025974025974051 2.025194805194906  13.987012987013259 2.771948051947872  15.461038961038867 4.1280519480521285  C 16.935064935065043 5.484155844155862  17.74675324675343 7.288311688311585  17.74675324675343 9.200000000000001  C 17.74675324675343 11.117662337662386  16.935064935065043 12.921818181818283  15.461038961038867 14.271948051947872  Z " fill-rule="evenodd" />
    </mask>
  </defs>
  <g transform="matrix(1 0 0 1 -375 -12 )">
    <path d="M 24.603896103895977 22.731168831168702  C 25.03246753246742 22.354805194805234  25.045454545454504 21.733506493506525  24.642857142857224 21.339220779220796  L 17.70779220779218 14.899220779220899  C 19.064935064935185 13.3340259740261  19.883116883116827 11.350649350649336  19.883116883116827 9.19402597402603  C 19.883116883116827 4.1459740259740405  15.435064935064702 0.05376623376625957  9.941558441558414 0.05376623376625957  C 4.448051948052125 0.05376623376625957  0 4.151948051948011  0 9.200000000000001  C 0 14.24805194805199  4.448051948052125 18.340259740259597  9.941558441558414 18.340259740259597  C 12.318181818181984 18.340259740259597  14.493506493506631 17.57558441558437  16.20779220779241 16.297142857142777  L 23.09740259740238 22.695324675324702  C 23.30519480519456 22.89844155844145  23.590909090909236 23  23.870129870130086 23  C 24.136363636363853 23  24.40259740259762 22.910389610389743  24.603896103895977 22.731168831168702  Z M 15.461038961038867 14.271948051947872  C 13.987012987013259 15.628051948052128  12.025974025974051 16.374805194805095  9.941558441558414 16.374805194805095  C 7.857142857142777 16.374805194805095  5.896103896104137 15.628051948052128  4.4220779220779605 14.271948051947872  C 2.948051948051784 12.91584415584414  2.1363636363633987 11.111688311688416  2.1363636363633987 9.200000000000001  C 2.1363636363633987 7.282337662337613  2.948051948051784 5.478181818181717  4.4220779220779605 4.1280519480521285  C 5.896103896104137 2.771948051947872  7.857142857142777 2.025194805194906  9.941558441558414 2.025194805194906  C 12.025974025974051 2.025194805194906  13.987012987013259 2.771948051947872  15.461038961038867 4.1280519480521285  C 16.935064935065043 5.484155844155862  17.74675324675343 7.288311688311585  17.74675324675343 9.200000000000001  C 17.74675324675343 11.117662337662386  16.935064935065043 12.921818181818283  15.461038961038867 14.271948051947872  Z " fill-rule="nonzero" fill="rgba(255, 255, 255, 1)" stroke="none" transform="matrix(1 0 0 1 375 12 )" class="fill" />
    <path d="M 24.603896103895977 22.731168831168702  C 25.03246753246742 22.354805194805234  25.045454545454504 21.733506493506525  24.642857142857224 21.339220779220796  L 17.70779220779218 14.899220779220899  C 19.064935064935185 13.3340259740261  19.883116883116827 11.350649350649336  19.883116883116827 9.19402597402603  C 19.883116883116827 4.1459740259740405  15.435064935064702 0.05376623376625957  9.941558441558414 0.05376623376625957  C 4.448051948052125 0.05376623376625957  0 4.151948051948011  0 9.200000000000001  C 0 14.24805194805199  4.448051948052125 18.340259740259597  9.941558441558414 18.340259740259597  C 12.318181818181984 18.340259740259597  14.493506493506631 17.57558441558437  16.20779220779241 16.297142857142777  L 23.09740259740238 22.695324675324702  C 23.30519480519456 22.89844155844145  23.590909090909236 23  23.870129870130086 23  C 24.136363636363853 23  24.40259740259762 22.910389610389743  24.603896103895977 22.731168831168702  Z " stroke-width="0" stroke-dasharray="0" stroke="rgba(255, 255, 255, 0)" fill="none" transform="matrix(1 0 0 1 375 12 )" class="stroke" mask="url(#Clip201)" />
    <path d="M 15.461038961038867 14.271948051947872  C 13.987012987013259 15.628051948052128  12.025974025974051 16.374805194805095  9.941558441558414 16.374805194805095  C 7.857142857142777 16.374805194805095  5.896103896104137 15.628051948052128  4.4220779220779605 14.271948051947872  C 2.948051948051784 12.91584415584414  2.1363636363633987 11.111688311688416  2.1363636363633987 9.200000000000001  C 2.1363636363633987 7.282337662337613  2.948051948051784 5.478181818181717  4.4220779220779605 4.1280519480521285  C 5.896103896104137 2.771948051947872  7.857142857142777 2.025194805194906  9.941558441558414 2.025194805194906  C 12.025974025974051 2.025194805194906  13.987012987013259 2.771948051947872  15.461038961038867 4.1280519480521285  C 16.935064935065043 5.484155844155862  17.74675324675343 7.288311688311585  17.74675324675343 9.200000000000001  C 17.74675324675343 11.117662337662386  16.935064935065043 12.921818181818283  15.461038961038867 14.271948051947872  Z " stroke-width="0" stroke-dasharray="0" stroke="rgba(255, 255, 255, 0)" fill="none" transform="matrix(1 0 0 1 375 12 )" class="stroke" mask="url(#Clip201)" />
  </g>
</svg>