<?xml version="1.0" encoding="utf-8"?>
<svg version="1.1" xmlns:xlink="http://www.w3.org/1999/xlink" width="24px" height="24px" xmlns="http://www.w3.org/2000/svg">
  <defs>
    <pattern id="BGPattern" patternUnits="userSpaceOnUse" alignment="0 0" imageRepeat="None" />
    <mask fill="white" id="Clip192">
      <path d="M 23.953488372093034 12  C 23.953488372093034 11.181395348837171  23.28372093023259 10.511627906976713  22.465116279069775 10.511627906976713  L 13.488372093023258 10.511627906976713  L 13.488372093023258 1.5348837209302602  C 13.488372093023258 0.716279069767424  12.818604651162786 0.04651162790696617  12 0.04651162790696617  C 11.181395348837214 0.04651162790696617  10.511627906976742 0.716279069767424  10.511627906976742 1.5348837209302602  L 10.511627906976742 10.511627906976713  L 1.5348837209302246 10.511627906976713  C 0.7162790697674382 10.511627906976713  0.04651162790696617 11.181395348837171  0.04651162790696617 12  C 0.04651162790696617 12.40930232558135  0.21395348837209127 12.781395348837208  0.4837209302325647 13.05116279069766  C 0.7534883720930097 13.320930232558112  1.1255813953488314 13.488372093023287  1.5348837209302246 13.488372093023287  L 10.511627906976742 13.488372093023287  L 10.511627906976742 22.465116279069747  C 10.511627906976742 22.874418604651098  10.679069767441867 23.24651162790694  10.948837209302312 23.516279069767407  C 11.218604651162785 23.78604651162786  11.590697674418607 23.953488372093034  12 23.953488372093034  C 12.818604651162786 23.953488372093034  13.488372093023258 23.283720930232576  13.488372093023258 22.465116279069747  L 13.488372093023258 13.488372093023287  L 22.465116279069775 13.488372093023287  C 23.28372093023259 13.488372093023287  23.953488372093034 12.818604651162829  23.953488372093034 12  Z " fill-rule="evenodd" />
    </mask>
  </defs>
  <g transform="matrix(1 0 0 1 -16 -8 )">
    <path d="M 23.953488372093034 12  C 23.953488372093034 11.181395348837171  23.28372093023259 10.511627906976713  22.465116279069775 10.511627906976713  L 13.488372093023258 10.511627906976713  L 13.488372093023258 1.5348837209302602  C 13.488372093023258 0.716279069767424  12.818604651162786 0.04651162790696617  12 0.04651162790696617  C 11.181395348837214 0.04651162790696617  10.511627906976742 0.716279069767424  10.511627906976742 1.5348837209302602  L 10.511627906976742 10.511627906976713  L 1.5348837209302246 10.511627906976713  C 0.7162790697674382 10.511627906976713  0.04651162790696617 11.181395348837171  0.04651162790696617 12  C 0.04651162790696617 12.40930232558135  0.21395348837209127 12.781395348837208  0.4837209302325647 13.05116279069766  C 0.7534883720930097 13.320930232558112  1.1255813953488314 13.488372093023287  1.5348837209302246 13.488372093023287  L 10.511627906976742 13.488372093023287  L 10.511627906976742 22.465116279069747  C 10.511627906976742 22.874418604651098  10.679069767441867 23.24651162790694  10.948837209302312 23.516279069767407  C 11.218604651162785 23.78604651162786  11.590697674418607 23.953488372093034  12 23.953488372093034  C 12.818604651162786 23.953488372093034  13.488372093023258 23.283720930232576  13.488372093023258 22.465116279069747  L 13.488372093023258 13.488372093023287  L 22.465116279069775 13.488372093023287  C 23.28372093023259 13.488372093023287  23.953488372093034 12.818604651162829  23.953488372093034 12  Z " fill-rule="nonzero" fill="rgba(255, 255, 255, 1)" stroke="none" transform="matrix(1 0 0 1 16 8 )" class="fill" />
    <path d="M 23.953488372093034 12  C 23.953488372093034 11.181395348837171  23.28372093023259 10.511627906976713  22.465116279069775 10.511627906976713  L 13.488372093023258 10.511627906976713  L 13.488372093023258 1.5348837209302602  C 13.488372093023258 0.716279069767424  12.818604651162786 0.04651162790696617  12 0.04651162790696617  C 11.181395348837214 0.04651162790696617  10.511627906976742 0.716279069767424  10.511627906976742 1.5348837209302602  L 10.511627906976742 10.511627906976713  L 1.5348837209302246 10.511627906976713  C 0.7162790697674382 10.511627906976713  0.04651162790696617 11.181395348837171  0.04651162790696617 12  C 0.04651162790696617 12.40930232558135  0.21395348837209127 12.781395348837208  0.4837209302325647 13.05116279069766  C 0.7534883720930097 13.320930232558112  1.1255813953488314 13.488372093023287  1.5348837209302246 13.488372093023287  L 10.511627906976742 13.488372093023287  L 10.511627906976742 22.465116279069747  C 10.511627906976742 22.874418604651098  10.679069767441867 23.24651162790694  10.948837209302312 23.516279069767407  C 11.218604651162785 23.78604651162786  11.590697674418607 23.953488372093034  12 23.953488372093034  C 12.818604651162786 23.953488372093034  13.488372093023258 23.283720930232576  13.488372093023258 22.465116279069747  L 13.488372093023258 13.488372093023287  L 22.465116279069775 13.488372093023287  C 23.28372093023259 13.488372093023287  23.953488372093034 12.818604651162829  23.953488372093034 12  Z " stroke-width="0" stroke-dasharray="0" stroke="rgba(255, 255, 255, 0)" fill="none" transform="matrix(1 0 0 1 16 8 )" class="stroke" mask="url(#Clip192)" />
  </g>
</svg>