<?xml version="1.0" encoding="utf-8"?>
<svg version="1.1" xmlns:xlink="http://www.w3.org/1999/xlink" width="72px" height="71px" xmlns="http://www.w3.org/2000/svg">
  <g transform="matrix(1 0 0 1 -136 -920 )">
    <path d="M 136 920  L 208 920  L 208 991  L 136 991  L 136 920  " fill-rule="nonzero" fill="rgba(204, 204, 204, 1)" stroke="none" class="fill" />
    <path d="M 141 925  L 203 925  L 203 986  L 141 986  L 141 925  " fill-rule="nonzero" fill="rgba(255, 255, 255, 1)" stroke="none" class="fill" />
    <path d="M 178.765 941.3  C 175.783 941.3  173.44 938.9569999999999  173.44 935.9749999999999  C 173.44 932.9929999999999  175.783 930.65  178.765 930.65  C 181.74699999999999 930.65  184.09 932.9929999999999  184.09 935.9749999999999  C 184.09 938.9569999999999  181.74699999999999 941.3  178.765 941.3  " fill-rule="nonzero" fill="rgba(204, 204, 204, 1)" stroke="none" class="fill" />
    <path d="M 143 984  L 143 952.65  L 157.5 938.4  L 177.8 950.275  L 189.4 946.95  L 201 950.275  L 201 984  L 143 984  " fill-rule="nonzero" fill="rgba(22, 155, 213, 1)" stroke="none" class="fill" />
  </g>
</svg>