<?xml version="1.0" encoding="utf-8"?>
<svg version="1.1" xmlns:xlink="http://www.w3.org/1999/xlink" width="72px" height="71px" xmlns="http://www.w3.org/2000/svg">
  <g transform="matrix(1 0 0 1 -155 -786 )">
    <path d="M 155 786  L 227 786  L 227 857  L 155 857  L 155 786  " fill-rule="nonzero" fill="rgba(204, 204, 204, 1)" stroke="none" class="fill" />
    <path d="M 160 791  L 222 791  L 222 852  L 160 852  L 160 791  " fill-rule="nonzero" fill="rgba(255, 255, 255, 1)" stroke="none" class="fill" />
    <path d="M 197.765 807.3  C 194.783 807.3  192.44 804.9569999999999  192.44 801.9749999999999  C 192.44 798.9929999999999  194.783 796.65  197.765 796.65  C 200.74699999999999 796.65  203.09 798.9929999999999  203.09 801.9749999999999  C 203.09 804.9569999999999  200.74699999999999 807.3  197.765 807.3  " fill-rule="nonzero" fill="rgba(204, 204, 204, 1)" stroke="none" class="fill" />
    <path d="M 162 850  L 162 818.65  L 176.5 804.4  L 196.8 816.275  L 208.4 812.95  L 220 816.275  L 220 850  L 162 850  " fill-rule="nonzero" fill="rgba(22, 155, 213, 1)" stroke="none" class="fill" />
  </g>
</svg>