<?xml version="1.0" encoding="utf-8"?>
<svg version="1.1" xmlns:xlink="http://www.w3.org/1999/xlink" width="18px" height="18px" xmlns="http://www.w3.org/2000/svg">
  <defs>
    <pattern id="BGPattern" patternUnits="userSpaceOnUse" alignment="0 0" imageRepeat="None" />
  </defs>
  <g transform="matrix(1 0 0 1 -111 -70 )">
    <path d="M 9 0  C 14.040000000000001 0  18 3.9599999999999995  18 9  C 18 14.040000000000001  14.040000000000001 18  9 18  C 3.9599999999999995 18  0 14.040000000000001  0 9  C 0 3.9599999999999995  3.9599999999999995 0  9 0  Z " fill-rule="nonzero" fill="rgba(98, 0, 238, 0)" stroke="none" transform="matrix(1 0 0 1 111 70 )" class="fill" />
    <path d="M 9 1  C 13.48 1  17 4.52  17 9  C 17 13.48  13.48 17  9 17  C 4.52 17  1 13.48  1 9  C 1 4.52  4.52 1  9 1  Z " stroke-width="2" stroke-dasharray="0" stroke="rgba(30, 152, 215, 1)" fill="none" transform="matrix(1 0 0 1 111 70 )" class="stroke" />
    <path d="M 9 13.5  C 6.4799999999999995 13.5  4.5 11.52  4.5 9  C 4.5 6.4799999999999995  6.4799999999999995 4.5  9 4.5  C 11.52 4.5  13.5 6.4799999999999995  13.5 9  C 13.5 11.52  11.52 13.5  9 13.5  " fill-rule="nonzero" fill="rgba(30, 152, 215, 1)" stroke="none" transform="matrix(1 0 0 1 111 70 )" class="stroke btn_check" />
  </g>
</svg>