<?xml version="1.0" encoding="utf-8"?>
<svg version="1.1" xmlns:xlink="http://www.w3.org/1999/xlink" width="18px" height="18px" xmlns="http://www.w3.org/2000/svg">
  <defs>
    <pattern id="BGPattern" patternUnits="userSpaceOnUse" alignment="0 0" imageRepeat="None" />
  </defs>
  <g transform="matrix(1 0 0 1 -258 -58 )">
    <path d="M 0 2.0000000000000004  A 2 2 0 0 1 1.9999999999999996 0 L 16 0  A 2 2 0 0 1 18 2 L 18 16  A 2 2 0 0 1 16 18 L 2 18  A 2 2 0 0 1 0 16 L 0 2  Z " fill-rule="nonzero" fill="rgba(255, 255, 255, 0)" stroke="none" transform="matrix(1 0 0 1 258 58 )" class="fill" />
    <path d="M 1 2  A 1 1 0 0 1 1.9999999999999998 1 L 16 1  A 1 1 0 0 1 17 2 L 17 16  A 1 1 0 0 1 16 17 L 2 17  A 1 1 0 0 1 1 16 L 1 2  Z " stroke-width="2" stroke-dasharray="0" stroke="rgba(121, 121, 121, 1)" fill="none" transform="matrix(1 0 0 1 258 58 )" class="stroke" />
    <path d="M 3.8571428571428577 9  L 7.714285714285714 12.857142857142856  L 14.142857142857142 3.8571428571428577  " stroke-width="3.8571428571428577" stroke-dasharray="0" stroke="rgba(121, 121, 121, 1)" fill="none" transform="matrix(1 0 0 1 258 58 )" class="stroke btn_check" />
  </g>
</svg>