<?xml version="1.0" encoding="utf-8"?>
<svg version="1.1" xmlns:xlink="http://www.w3.org/1999/xlink" width="17px" height="30px" xmlns="http://www.w3.org/2000/svg">
  <defs>
    <pattern id="BGPattern" patternUnits="userSpaceOnUse" alignment="0 0" imageRepeat="None" />
    <mask fill="white" id="Clip58">
      <path d="M 16.43923611111111 13.681640625  C 16.813078703703706 14.052734374999998  17 14.492187499999998  17 15  C 17 15.507812499999998  16.813078703703706 15.947265624999998  16.43923611111111 16.318359375  L 3.217013888888889 29.443359375  C 2.8431712962962963 29.814453125000004  2.4004629629629632 30  1.8888888888888888 30  C 1.377314814814815 30  0.9346064814814815 29.814453125000004  0.560763888888889 29.443359375  C 0.1869212962962963 29.072265624999996  0 28.632812499999996  0 28.125  L 0 1.875  C 0 1.3671874999999956  0.1869212962962963 0.9277343749999956  0.560763888888889 0.556640625  C 0.9346064814814815 0.18554687499999778  1.377314814814815 0  1.8888888888888888 0  C 2.4004629629629632 0  2.8431712962962963 0.18554687499999778  3.217013888888889 0.556640625  L 16.43923611111111 13.681640625  Z " fill-rule="evenodd" />
    </mask>
  </defs>
  <g transform="matrix(1 0 0 1 -791 -310 )">
    <path d="M 16.43923611111111 13.681640625  C 16.813078703703706 14.052734374999998  17 14.492187499999998  17 15  C 17 15.507812499999998  16.813078703703706 15.947265624999998  16.43923611111111 16.318359375  L 3.217013888888889 29.443359375  C 2.8431712962962963 29.814453125000004  2.4004629629629632 30  1.8888888888888888 30  C 1.377314814814815 30  0.9346064814814815 29.814453125000004  0.560763888888889 29.443359375  C 0.1869212962962963 29.072265624999996  0 28.632812499999996  0 28.125  L 0 1.875  C 0 1.3671874999999956  0.1869212962962963 0.9277343749999956  0.560763888888889 0.556640625  C 0.9346064814814815 0.18554687499999778  1.377314814814815 0  1.8888888888888888 0  C 2.4004629629629632 0  2.8431712962962963 0.18554687499999778  3.217013888888889 0.556640625  L 16.43923611111111 13.681640625  Z " fill-rule="nonzero" fill="rgba(127, 127, 127, 1)" stroke="none" transform="matrix(1 0 0 1 791 310 )" class="fill" />
    <path d="M 16.43923611111111 13.681640625  C 16.813078703703706 14.052734374999998  17 14.492187499999998  17 15  C 17 15.507812499999998  16.813078703703706 15.947265624999998  16.43923611111111 16.318359375  L 3.217013888888889 29.443359375  C 2.8431712962962963 29.814453125000004  2.4004629629629632 30  1.8888888888888888 30  C 1.377314814814815 30  0.9346064814814815 29.814453125000004  0.560763888888889 29.443359375  C 0.1869212962962963 29.072265624999996  0 28.632812499999996  0 28.125  L 0 1.875  C 0 1.3671874999999956  0.1869212962962963 0.9277343749999956  0.560763888888889 0.556640625  C 0.9346064814814815 0.18554687499999778  1.377314814814815 0  1.8888888888888888 0  C 2.4004629629629632 0  2.8431712962962963 0.18554687499999778  3.217013888888889 0.556640625  L 16.43923611111111 13.681640625  Z " stroke-width="2" stroke-dasharray="0" stroke="rgba(255, 255, 255, 0)" fill="none" transform="matrix(1 0 0 1 791 310 )" class="stroke" mask="url(#Clip58)" />
  </g>
</svg>