<?xml version="1.0" encoding="utf-8"?>
<svg version="1.1" xmlns:xlink="http://www.w3.org/1999/xlink" width="312px" height="15px" xmlns="http://www.w3.org/2000/svg">
  <defs>
    <pattern id="BGPattern" patternUnits="userSpaceOnUse" alignment="0 0" imageRepeat="None" />
    <mask fill="white" id="Clip44">
      <path d="M 0 15  L 0 0  L 272.6176470588235 0  L 276.98739495798316 0  L 312 0  L 312 15  L 0 15  Z " fill-rule="evenodd" />
    </mask>
  </defs>
  <g transform="matrix(1 0 0 1 -1264 -18 )">
    <path d="M 0 15  L 0 0  L 272.6176470588235 0  L 276.98739495798316 0  L 312 0  L 312 15  L 0 15  Z " fill-rule="nonzero" fill="rgba(202, 249, 130, 1)" stroke="none" transform="matrix(1 0 0 1 1264 18 )" class="fill" />
    <path d="M 0 15  L 0 0  L 272.6176470588235 0  L 276.98739495798316 0  L 312 0  L 312 15  L 0 15  Z " stroke-width="0" stroke-dasharray="0" stroke="rgba(121, 121, 121, 1)" fill="none" transform="matrix(1 0 0 1 1264 18 )" class="stroke" mask="url(#Clip44)" />
  </g>
</svg>