<?xml version="1.0" encoding="utf-8"?>
<svg version="1.1" xmlns:xlink="http://www.w3.org/1999/xlink" width="10px" height="10px" xmlns="http://www.w3.org/2000/svg">
  <defs>
    <pattern id="BGPattern" patternUnits="userSpaceOnUse" alignment="0 0" imageRepeat="None" />
    <mask fill="white" id="Clip231">
      <path d="M 0 5  C 0 2.1999999999999997  2.1999999999999997 0  5 0  C 7.800000000000001 0  10 2.1999999999999997  10 5  C 10 7.800000000000001  7.800000000000001 10  5 10  C 2.1999999999999997 10  0 7.800000000000001  0 5  Z " fill-rule="evenodd" />
    </mask>
  </defs>
  <g transform="matrix(1 0 0 1 -280 -32 )">
    <path d="M 0 5  C 0 2.1999999999999997  2.1999999999999997 0  5 0  C 7.800000000000001 0  10 2.1999999999999997  10 5  C 10 7.800000000000001  7.800000000000001 10  5 10  C 2.1999999999999997 10  0 7.800000000000001  0 5  Z " fill-rule="nonzero" fill="rgba(204, 204, 204, 1)" stroke="none" transform="matrix(1 0 0 1 280 32 )" class="fill" />
    <path d="M 0 5  C 0 2.1999999999999997  2.1999999999999997 0  5 0  C 7.800000000000001 0  10 2.1999999999999997  10 5  C 10 7.800000000000001  7.800000000000001 10  5 10  C 2.1999999999999997 10  0 7.800000000000001  0 5  Z " stroke-width="0" stroke-dasharray="0" stroke="rgba(255, 255, 255, 1)" fill="none" transform="matrix(1 0 0 1 280 32 )" class="stroke" mask="url(#Clip231)" />
  </g>
</svg>