<?xml version="1.0" encoding="utf-8"?>
<svg version="1.1" xmlns:xlink="http://www.w3.org/1999/xlink" width="76px" height="27px" xmlns="http://www.w3.org/2000/svg">
  <defs>
    <pattern id="BGPattern" patternUnits="userSpaceOnUse" alignment="0 0" imageRepeat="None" />
    <mask fill="white" id="Clip239">
      <path d="M 0 22  L 0 5  C 0 2.1999999999999886  2.2000000000000455 0  5 0  L 34.391304347826235 0  L 71 0  C 73.79999999999995 0  76 2.1999999999999886  76 5  L 76 22  C 76 24.80000000000001  73.79999999999995 27  71 27  L 5 27  C 2.2000000000000455 27  0 24.80000000000001  0 22  Z " fill-rule="evenodd" />
    </mask>
  </defs>
  <g transform="matrix(1 0 0 1 -2095 -249 )">
    <path d="M 0 22  L 0 5  C 0 2.1999999999999886  2.2000000000000455 0  5 0  L 34.391304347826235 0  L 71 0  C 73.79999999999995 0  76 2.1999999999999886  76 5  L 76 22  C 76 24.80000000000001  73.79999999999995 27  71 27  L 5 27  C 2.2000000000000455 27  0 24.80000000000001  0 22  Z " fill-rule="nonzero" fill="rgba(22, 155, 213, 1)" stroke="none" transform="matrix(1 0 0 1 2095 249 )" class="fill" />
    <path d="M 0 22  L 0 5  C 0 2.1999999999999886  2.2000000000000455 0  5 0  L 34.391304347826235 0  L 71 0  C 73.79999999999995 0  76 2.1999999999999886  76 5  L 76 22  C 76 24.80000000000001  73.79999999999995 27  71 27  L 5 27  C 2.2000000000000455 27  0 24.80000000000001  0 22  Z " stroke-width="0" stroke-dasharray="0" stroke="rgba(121, 121, 121, 1)" fill="none" transform="matrix(1 0 0 1 2095 249 )" class="stroke" mask="url(#Clip239)" />
  </g>
</svg>