<?xml version="1.0" encoding="utf-8"?>
<svg version="1.1" xmlns:xlink="http://www.w3.org/1999/xlink" width="16px" height="16px" xmlns="http://www.w3.org/2000/svg">
  <defs>
    <pattern id="BGPattern" patternUnits="userSpaceOnUse" alignment="0 0" imageRepeat="None" />
  </defs>
  <g transform="matrix(1 0 0 1 -170 -173 )">
    <path d="M 8 0  C 12.48 0  16 3.5199999999999996  16 8  C 16 12.48  12.48 16  8 16  C 3.5199999999999996 16  0 12.48  0 8  C 0 3.5199999999999996  3.5199999999999996 0  8 0  Z " fill-rule="nonzero" fill="rgba(240, 240, 240, 1)" stroke="none" transform="matrix(1 0 0 1 170 173 )" class="fill" />
    <path d="M 8 0.5  C 12.200000000000001 0.5  15.5 3.8  15.5 8  C 15.5 12.200000000000001  12.200000000000001 15.5  8 15.5  C 3.8 15.5  0.5 12.200000000000001  0.5 8  C 0.5 3.8  3.8 0.5  8 0.5  Z " stroke-width="1" stroke-dasharray="0" stroke="rgba(140, 140, 140, 1)" fill="none" transform="matrix(1 0 0 1 170 173 )" class="stroke" stroke-dashoffset="0.5" />
  </g>
</svg>