<?xml version="1.0" encoding="utf-8"?>
<svg version="1.1" xmlns:xlink="http://www.w3.org/1999/xlink" width="120px" height="172px" xmlns="http://www.w3.org/2000/svg">
  <g>
    <path d="M 0 0  L 120 0  L 120 172  L 0 172  L 0 0  " fill-rule="nonzero" fill="rgba(204, 204, 204, 1)" stroke="none" class="fill" />
    <path d="M 8 8  L 112 8  L 112 164  L 8 164  L 8 8  " fill-rule="nonzero" fill="rgba(255, 255, 255, 1)" stroke="none" class="fill" />
    <path d="M 71.4 43.8  C 66.36 43.8  62.400000000000006 39.839999999999996  62.400000000000006 34.8  C 62.400000000000006 29.759999999999998  66.36 25.8  71.4 25.8  C 76.44000000000001 25.8  80.4 29.759999999999998  80.4 34.8  C 80.4 39.839999999999996  76.44000000000001 43.8  71.4 43.8  " fill-rule="nonzero" fill="rgba(204, 204, 204, 1)" stroke="none" class="fill" />
    <path d="M 11 161  L 11 78.5  L 35.5 41  L 69.8 71  L 89.4 63.5  L 109 71  L 109 161  L 11 161  " fill-rule="nonzero" fill="rgba(22, 155, 213, 1)" stroke="none" class="fill" />
  </g>
</svg>