<?xml version="1.0" encoding="utf-8"?>
<svg version="1.1" xmlns:xlink="http://www.w3.org/1999/xlink" width="121px" height="172px" xmlns="http://www.w3.org/2000/svg">
  <g>
    <path d="M 0 0  L 121 0  L 121 172  L 0 172  L 0 0  " fill-rule="nonzero" fill="rgba(204, 204, 204, 1)" stroke="none" class="fill" />
    <path d="M 8 8  L 113 8  L 113 164  L 8 164  L 8 8  " fill-rule="nonzero" fill="rgba(255, 255, 255, 1)" stroke="none" class="fill" />
    <path d="M 71.995 43.95  C 66.913 43.95  62.92 39.957  62.92 34.875  C 62.92 29.793  66.913 25.8  71.995 25.8  C 77.077 25.8  81.07 29.793  81.07 34.875  C 81.07 39.957  77.077 43.95  71.995 43.95  " fill-rule="nonzero" fill="rgba(204, 204, 204, 1)" stroke="none" class="fill" />
    <path d="M 11 161  L 11 78.5  L 35.75 41  L 70.4 71  L 90.2 63.5  L 110 71  L 110 161  L 11 161  " fill-rule="nonzero" fill="rgba(22, 155, 213, 1)" stroke="none" class="fill" />
  </g>
</svg>