<?xml version="1.0" encoding="utf-8"?>
<svg version="1.1" xmlns:xlink="http://www.w3.org/1999/xlink" width="121px" height="170px" xmlns="http://www.w3.org/2000/svg">
  <g>
    <path d="M 0 0  L 121 0  L 121 170  L 0 170  L 0 0  " fill-rule="nonzero" fill="rgba(204, 204, 204, 1)" stroke="none" class="fill" />
    <path d="M 8 8  L 113 8  L 113 162  L 8 162  L 8 8  " fill-rule="nonzero" fill="rgba(255, 255, 255, 1)" stroke="none" class="fill" />
    <path d="M 71.995 43.65  C 66.913 43.65  62.92 39.657000000000004  62.92 34.575  C 62.92 29.493000000000002  66.913 25.5  71.995 25.5  C 77.077 25.5  81.07 29.493000000000002  81.07 34.575  C 81.07 39.657000000000004  77.077 43.65  71.995 43.65  " fill-rule="nonzero" fill="rgba(204, 204, 204, 1)" stroke="none" class="fill" />
    <path d="M 11 159  L 11 77.6  L 35.75 40.599999999999994  L 70.4 70.2  L 90.2 62.8  L 110 70.2  L 110 159  L 11 159  " fill-rule="nonzero" fill="rgba(22, 155, 213, 1)" stroke="none" class="fill" />
  </g>
</svg>