<?xml version="1.0" encoding="utf-8"?>
<svg version="1.1" xmlns:xlink="http://www.w3.org/1999/xlink" width="72px" height="71px" xmlns="http://www.w3.org/2000/svg">
  <g transform="matrix(1 0 0 1 -124 -158 )">
    <path d="M 124 158  L 196 158  L 196 229  L 124 229  L 124 158  " fill-rule="nonzero" fill="rgba(204, 204, 204, 1)" stroke="none" class="fill" />
    <path d="M 129 163  L 191 163  L 191 224  L 129 224  L 129 163  " fill-rule="nonzero" fill="rgba(255, 255, 255, 1)" stroke="none" class="fill" />
    <path d="M 166.765 179.3  C 163.783 179.3  161.44 176.95700000000002  161.44 173.97500000000002  C 161.44 170.99300000000002  163.783 168.65  166.765 168.65  C 169.74699999999999 168.65  172.09 170.99300000000002  172.09 173.97500000000002  C 172.09 176.95700000000002  169.74699999999999 179.3  166.765 179.3  " fill-rule="nonzero" fill="rgba(204, 204, 204, 1)" stroke="none" class="fill" />
    <path d="M 131 222  L 131 190.65  L 145.5 176.4  L 165.8 188.275  L 177.4 184.95  L 189 188.275  L 189 222  L 131 222  " fill-rule="nonzero" fill="rgba(22, 155, 213, 1)" stroke="none" class="fill" />
  </g>
</svg>