<?xml version="1.0" encoding="utf-8"?>
<svg version="1.1" xmlns:xlink="http://www.w3.org/1999/xlink" width="34px" height="47px" xmlns="http://www.w3.org/2000/svg">
  <g transform="matrix(1 0 0 1 -338 -106 )">
    <path d="M 338 106  L 372 106  L 372 153  L 338 153  L 338 106  " fill-rule="nonzero" fill="rgba(204, 204, 204, 1)" stroke="none" class="fill" />
    <path d="M 340 108  L 370 108  L 370 151  L 340 151  L 340 108  " fill-rule="nonzero" fill="rgba(255, 255, 255, 1)" stroke="none" class="fill" />
    <path d="M 358.23 118.14999999999999  C 356.802 118.14999999999999  355.68 117.02799999999999  355.68 115.6  C 355.68 114.172  356.802 113.05  358.23 113.05  C 359.658 113.05  360.78000000000003 114.172  360.78000000000003 115.6  C 360.78000000000003 117.02799999999999  359.658 118.14999999999999  358.23 118.14999999999999  " fill-rule="nonzero" fill="rgba(204, 204, 204, 1)" stroke="none" class="fill" />
    <path d="M 341 150  L 341 127.45  L 348 117.19999999999999  L 357.8 125.4  L 363.4 123.35  L 369 125.4  L 369 150  L 341 150  " fill-rule="nonzero" fill="rgba(22, 155, 213, 1)" stroke="none" class="fill" />
  </g>
</svg>