<?xml version="1.0" encoding="utf-8"?>
<svg version="1.1" xmlns:xlink="http://www.w3.org/1999/xlink" width="30px" height="30px" xmlns="http://www.w3.org/2000/svg">
  <defs>
    <pattern id="BGPattern" patternUnits="userSpaceOnUse" alignment="0 0" imageRepeat="None" />
    <mask fill="white" id="Clip4">
      <path d="M 29.524675324675172 29.64935064935048  C 30.038961038960906 29.15844155844161  30.054545454545405 28.34805194805199  29.57142857142867 27.833766233766255  L 21.249350649350617 19.43376623376639  C 22.87792207792222 17.392207792207955  23.859740259740192 14.805194805194787  23.859740259740192 11.992207792207864  C 23.859740259740192 5.407792207792227  18.522077922077642 0.07012987012990379  11.929870129870096 0.07012987012990379  C 5.33766233766255 0.07012987012990379  0 5.415584415584362  0 12  C 0 18.584415584415638  5.33766233766255 23.922077922077733  11.929870129870096 23.922077922077733  C 14.78181818181838 23.922077922077733  17.392207792207955 22.924675324675263  19.44935064935089 21.257142857142753  L 27.716883116882855 29.60259740259744  C 27.966233766233472 29.867532467532328  28.309090909091083 30  28.644155844156103 30  C 28.963636363636624 30  29.283116883117145 29.883116883117054  29.524675324675172 29.64935064935048  Z M 18.55324675324664 18.61558441558418  C 16.78441558441591 20.38441558441582  14.431168831168861 21.358441558441427  11.929870129870096 21.358441558441427  C 9.428571428571331 21.358441558441427  7.075324675324964 20.38441558441582  5.306493506493553 18.61558441558418  C 3.537662337662141 16.846753246753224  2.5636363636360784 14.49350649350663  2.5636363636360784 12  C 2.5636363636360784 9.498701298701235  3.537662337662141 7.145454545454413  5.306493506493553 5.3844155844158195  C 7.075324675324964 3.6155844155841805  9.428571428571331 2.6415584415585727  11.929870129870096 2.6415584415585727  C 14.431168831168861 2.6415584415585727  16.78441558441591 3.6155844155841805  18.55324675324664 5.3844155844158195  C 20.32207792207805 7.153246753246776  21.296103896104114 9.50649350649337  21.296103896104114 12  C 21.296103896104114 14.501298701298765  20.32207792207805 16.854545454545587  18.55324675324664 18.61558441558418  Z " fill-rule="evenodd" />
    </mask>
  </defs>
  <g transform="matrix(1 0 0 1 -613 -70 )">
    <path d="M 29.524675324675172 29.64935064935048  C 30.038961038960906 29.15844155844161  30.054545454545405 28.34805194805199  29.57142857142867 27.833766233766255  L 21.249350649350617 19.43376623376639  C 22.87792207792222 17.392207792207955  23.859740259740192 14.805194805194787  23.859740259740192 11.992207792207864  C 23.859740259740192 5.407792207792227  18.522077922077642 0.07012987012990379  11.929870129870096 0.07012987012990379  C 5.33766233766255 0.07012987012990379  0 5.415584415584362  0 12  C 0 18.584415584415638  5.33766233766255 23.922077922077733  11.929870129870096 23.922077922077733  C 14.78181818181838 23.922077922077733  17.392207792207955 22.924675324675263  19.44935064935089 21.257142857142753  L 27.716883116882855 29.60259740259744  C 27.966233766233472 29.867532467532328  28.309090909091083 30  28.644155844156103 30  C 28.963636363636624 30  29.283116883117145 29.883116883117054  29.524675324675172 29.64935064935048  Z M 18.55324675324664 18.61558441558418  C 16.78441558441591 20.38441558441582  14.431168831168861 21.358441558441427  11.929870129870096 21.358441558441427  C 9.428571428571331 21.358441558441427  7.075324675324964 20.38441558441582  5.306493506493553 18.61558441558418  C 3.537662337662141 16.846753246753224  2.5636363636360784 14.49350649350663  2.5636363636360784 12  C 2.5636363636360784 9.498701298701235  3.537662337662141 7.145454545454413  5.306493506493553 5.3844155844158195  C 7.075324675324964 3.6155844155841805  9.428571428571331 2.6415584415585727  11.929870129870096 2.6415584415585727  C 14.431168831168861 2.6415584415585727  16.78441558441591 3.6155844155841805  18.55324675324664 5.3844155844158195  C 20.32207792207805 7.153246753246776  21.296103896104114 9.50649350649337  21.296103896104114 12  C 21.296103896104114 14.501298701298765  20.32207792207805 16.854545454545587  18.55324675324664 18.61558441558418  Z " fill-rule="nonzero" fill="rgba(255, 255, 255, 1)" stroke="none" transform="matrix(1 0 0 1 613 70 )" class="fill" />
    <path d="M 29.524675324675172 29.64935064935048  C 30.038961038960906 29.15844155844161  30.054545454545405 28.34805194805199  29.57142857142867 27.833766233766255  L 21.249350649350617 19.43376623376639  C 22.87792207792222 17.392207792207955  23.859740259740192 14.805194805194787  23.859740259740192 11.992207792207864  C 23.859740259740192 5.407792207792227  18.522077922077642 0.07012987012990379  11.929870129870096 0.07012987012990379  C 5.33766233766255 0.07012987012990379  0 5.415584415584362  0 12  C 0 18.584415584415638  5.33766233766255 23.922077922077733  11.929870129870096 23.922077922077733  C 14.78181818181838 23.922077922077733  17.392207792207955 22.924675324675263  19.44935064935089 21.257142857142753  L 27.716883116882855 29.60259740259744  C 27.966233766233472 29.867532467532328  28.309090909091083 30  28.644155844156103 30  C 28.963636363636624 30  29.283116883117145 29.883116883117054  29.524675324675172 29.64935064935048  Z " stroke-width="0" stroke-dasharray="0" stroke="rgba(255, 255, 255, 0)" fill="none" transform="matrix(1 0 0 1 613 70 )" class="stroke" mask="url(#Clip4)" />
    <path d="M 18.55324675324664 18.61558441558418  C 16.78441558441591 20.38441558441582  14.431168831168861 21.358441558441427  11.929870129870096 21.358441558441427  C 9.428571428571331 21.358441558441427  7.075324675324964 20.38441558441582  5.306493506493553 18.61558441558418  C 3.537662337662141 16.846753246753224  2.5636363636360784 14.49350649350663  2.5636363636360784 12  C 2.5636363636360784 9.498701298701235  3.537662337662141 7.145454545454413  5.306493506493553 5.3844155844158195  C 7.075324675324964 3.6155844155841805  9.428571428571331 2.6415584415585727  11.929870129870096 2.6415584415585727  C 14.431168831168861 2.6415584415585727  16.78441558441591 3.6155844155841805  18.55324675324664 5.3844155844158195  C 20.32207792207805 7.153246753246776  21.296103896104114 9.50649350649337  21.296103896104114 12  C 21.296103896104114 14.501298701298765  20.32207792207805 16.854545454545587  18.55324675324664 18.61558441558418  Z " stroke-width="0" stroke-dasharray="0" stroke="rgba(255, 255, 255, 0)" fill="none" transform="matrix(1 0 0 1 613 70 )" class="stroke" mask="url(#Clip4)" />
  </g>
</svg>