<?xml version="1.0" encoding="utf-8"?>
<svg version="1.1" xmlns:xlink="http://www.w3.org/1999/xlink" width="17px" height="30px" xmlns="http://www.w3.org/2000/svg">
  <defs>
    <pattern id="BGPattern" patternUnits="userSpaceOnUse" alignment="0 0" imageRepeat="None" />
    <mask fill="white" id="Clip12">
      <path d="M 16.43923611111111 0.556640625  C 16.813078703703706 0.9277343749999956  17 1.3671874999999956  17 1.875  L 17 28.125  C 17 28.632812499999996  16.813078703703706 29.072265624999996  16.43923611111111 29.443359375  C 16.06539351851852 29.814453125000004  15.622685185185185 30  15.11111111111111 30  C 14.599537037037038 30  14.156828703703706 29.814453125000004  13.78298611111111 29.443359375  L 0.560763888888889 16.318359375  C 0.18692129629629656 15.947265624999998  0 15.507812499999998  0 15  C 0 14.492187499999998  0.18692129629629656 14.052734374999998  0.560763888888889 13.681640625  L 13.78298611111111 0.556640625  C 14.156828703703706 0.18554687499999778  14.599537037037038 0  15.11111111111111 0  C 15.622685185185185 0  16.06539351851852 0.18554687499999778  16.43923611111111 0.556640625  Z " fill-rule="evenodd" />
    </mask>
  </defs>
  <g transform="matrix(1 0 0 1 9 -310 )">
    <path d="M 16.43923611111111 0.556640625  C 16.813078703703706 0.9277343749999956  17 1.3671874999999956  17 1.875  L 17 28.125  C 17 28.632812499999996  16.813078703703706 29.072265624999996  16.43923611111111 29.443359375  C 16.06539351851852 29.814453125000004  15.622685185185185 30  15.11111111111111 30  C 14.599537037037038 30  14.156828703703706 29.814453125000004  13.78298611111111 29.443359375  L 0.560763888888889 16.318359375  C 0.18692129629629656 15.947265624999998  0 15.507812499999998  0 15  C 0 14.492187499999998  0.18692129629629656 14.052734374999998  0.560763888888889 13.681640625  L 13.78298611111111 0.556640625  C 14.156828703703706 0.18554687499999778  14.599537037037038 0  15.11111111111111 0  C 15.622685185185185 0  16.06539351851852 0.18554687499999778  16.43923611111111 0.556640625  Z " fill-rule="nonzero" fill="rgba(127, 127, 127, 1)" stroke="none" transform="matrix(1 0 0 1 -9 310 )" class="fill" />
    <path d="M 16.43923611111111 0.556640625  C 16.813078703703706 0.9277343749999956  17 1.3671874999999956  17 1.875  L 17 28.125  C 17 28.632812499999996  16.813078703703706 29.072265624999996  16.43923611111111 29.443359375  C 16.06539351851852 29.814453125000004  15.622685185185185 30  15.11111111111111 30  C 14.599537037037038 30  14.156828703703706 29.814453125000004  13.78298611111111 29.443359375  L 0.560763888888889 16.318359375  C 0.18692129629629656 15.947265624999998  0 15.507812499999998  0 15  C 0 14.492187499999998  0.18692129629629656 14.052734374999998  0.560763888888889 13.681640625  L 13.78298611111111 0.556640625  C 14.156828703703706 0.18554687499999778  14.599537037037038 0  15.11111111111111 0  C 15.622685185185185 0  16.06539351851852 0.18554687499999778  16.43923611111111 0.556640625  Z " stroke-width="2" stroke-dasharray="0" stroke="rgba(255, 255, 255, 0)" fill="none" transform="matrix(1 0 0 1 -9 310 )" class="stroke" mask="url(#Clip12)" />
  </g>
</svg>