<?xml version="1.0" encoding="utf-8"?>
<svg version="1.1" xmlns:xlink="http://www.w3.org/1999/xlink" width="278px" height="15px" xmlns="http://www.w3.org/2000/svg">
  <defs>
    <pattern id="BGPattern" patternUnits="userSpaceOnUse" alignment="0 0" imageRepeat="None" />
    <mask fill="white" id="Clip206">
      <path d="M 0 15  L 0 0  L 278 0  L 278 15  L 209.88079470198676 15  L 204.91793838180257 15  L 0 15  Z " fill-rule="evenodd" />
    </mask>
  </defs>
  <g transform="matrix(1 0 0 1 -464 -49 )">
    <path d="M 0 15  L 0 0  L 278 0  L 278 15  L 209.88079470198676 15  L 204.91793838180257 15  L 0 15  Z " fill-rule="nonzero" fill="rgba(128, 255, 255, 1)" stroke="none" transform="matrix(1 0 0 1 464 49 )" class="fill" />
    <path d="M 0 15  L 0 0  L 278 0  L 278 15  L 209.88079470198676 15  L 204.91793838180257 15  L 0 15  Z " stroke-width="0" stroke-dasharray="0" stroke="rgba(121, 121, 121, 1)" fill="none" transform="matrix(1 0 0 1 464 49 )" class="stroke" mask="url(#Clip206)" />
  </g>
</svg>