<?xml version="1.0" encoding="utf-8"?>
<svg version="1.1" xmlns:xlink="http://www.w3.org/1999/xlink" width="64px" height="64px" xmlns="http://www.w3.org/2000/svg">
  <g transform="matrix(1 0 0 1 -93 0 )">
    <path d="M 93 0  L 157 0  L 157 64  L 93 64  L 93 0  " fill-rule="nonzero" fill="rgba(204, 204, 204, 1)" stroke="none" class="fill" />
    <path d="M 97 4  L 153 4  L 153 60  L 97 60  L 97 4  " fill-rule="nonzero" fill="rgba(255, 255, 255, 1)" stroke="none" class="fill" />
    <path d="M 131.07999999999998 19.2  C 128.392 19.2  126.28 17.088  126.28 14.399999999999999  C 126.28 11.712  128.392 9.6  131.07999999999998 9.6  C 133.768 9.6  135.88 11.712  135.88 14.399999999999999  C 135.88 17.088  133.768 19.2  131.07999999999998 19.2  " fill-rule="nonzero" fill="rgba(204, 204, 204, 1)" stroke="none" class="fill" />
    <path d="M 99 59  L 99 29.849999999999998  L 112.25 16.599999999999994  L 130.8 27.200000000000003  L 141.4 24.549999999999997  L 152 27.200000000000003  L 152 59  L 99 59  " fill-rule="nonzero" fill="rgba(22, 155, 213, 1)" stroke="none" class="fill" />
  </g>
</svg>