<?xml version="1.0" encoding="utf-8"?>
<svg version="1.1" xmlns:xlink="http://www.w3.org/1999/xlink" width="57px" height="59px" xmlns="http://www.w3.org/2000/svg">
  <defs>
    <pattern id="BGPattern" patternUnits="userSpaceOnUse" alignment="0 0" imageRepeat="None" />
    <mask fill="white" id="Clip245">
      <path d="M 10.363636363636363 42.909090909090914  L 15.545454545454545 42.909090909090914  L 15.545454545454545 48.272727272727266  L 10.363636363636363 48.272727272727266  L 10.363636363636363 42.909090909090914  Z M 10.363636363636363 10.727272727272725  L 15.545454545454545 10.727272727272725  L 15.545454545454545 16.09090909090909  L 10.363636363636363 16.09090909090909  L 10.363636363636363 10.727272727272725  Z M 41.45454545454545 10.727272727272725  L 46.63636363636364 10.727272727272725  L 46.63636363636364 16.09090909090909  L 41.45454545454545 16.09090909090909  L 41.45454545454545 10.727272727272725  Z M 6 37  L 6 53  L 21 53  L 21 37  L 6 37  Z M 6 6  L 6 22  L 21 22  L 21 6  L 6 6  Z M 36 6  L 36 22  L 51 22  L 51 6  L 36 6  Z M 0 32  L 26 32  L 26 59  L 0 59  L 0 32  Z M 41.45454545454545 53.63636363636363  L 46.63636363636364 53.63636363636363  L 46.63636363636364 59  L 41.45454545454545 59  L 41.45454545454545 53.63636363636363  Z M 51.81818181818181 53.63636363636363  L 57 53.63636363636363  L 57 59  L 51.81818181818181 59  L 51.81818181818181 53.63636363636363  Z M 51.81818181818181 32.18181818181818  L 57 32.18181818181818  L 57 48  L 41.45454545454545 48  L 41.45454545454545 42.909090909090914  L 36 42.909090909090914  L 36 59  L 31 59  L 31 32  L 46.63636363636364 32  L 46.63636363636364 37.54545454545455  L 51.81818181818181 37.54545454545455  L 51.81818181818181 32.18181818181818  Z M 0 0  L 26 0  L 26 27  L 0 27  L 0 0  Z M 31 0  L 57 0  L 57 27  L 31 27  L 31 0  Z " fill-rule="evenodd" />
    </mask>
  </defs>
  <g transform="matrix(1 0 0 1 -617 -242 )">
    <path d="M 10.363636363636363 42.909090909090914  L 15.545454545454545 42.909090909090914  L 15.545454545454545 48.272727272727266  L 10.363636363636363 48.272727272727266  L 10.363636363636363 42.909090909090914  Z M 10.363636363636363 10.727272727272725  L 15.545454545454545 10.727272727272725  L 15.545454545454545 16.09090909090909  L 10.363636363636363 16.09090909090909  L 10.363636363636363 10.727272727272725  Z M 41.45454545454545 10.727272727272725  L 46.63636363636364 10.727272727272725  L 46.63636363636364 16.09090909090909  L 41.45454545454545 16.09090909090909  L 41.45454545454545 10.727272727272725  Z M 6 37  L 6 53  L 21 53  L 21 37  L 6 37  Z M 6 6  L 6 22  L 21 22  L 21 6  L 6 6  Z M 36 6  L 36 22  L 51 22  L 51 6  L 36 6  Z M 0 32  L 26 32  L 26 59  L 0 59  L 0 32  Z M 41.45454545454545 53.63636363636363  L 46.63636363636364 53.63636363636363  L 46.63636363636364 59  L 41.45454545454545 59  L 41.45454545454545 53.63636363636363  Z M 51.81818181818181 53.63636363636363  L 57 53.63636363636363  L 57 59  L 51.81818181818181 59  L 51.81818181818181 53.63636363636363  Z M 51.81818181818181 32.18181818181818  L 57 32.18181818181818  L 57 48  L 41.45454545454545 48  L 41.45454545454545 42.909090909090914  L 36 42.909090909090914  L 36 59  L 31 59  L 31 32  L 46.63636363636364 32  L 46.63636363636364 37.54545454545455  L 51.81818181818181 37.54545454545455  L 51.81818181818181 32.18181818181818  Z M 0 0  L 26 0  L 26 27  L 0 27  L 0 0  Z M 31 0  L 57 0  L 57 27  L 31 27  L 31 0  Z " fill-rule="nonzero" fill="rgba(0, 0, 0, 1)" stroke="none" transform="matrix(1 0 0 1 617 242 )" class="fill" />
    <path d="M 10.363636363636363 42.909090909090914  L 15.545454545454545 42.909090909090914  L 15.545454545454545 48.272727272727266  L 10.363636363636363 48.272727272727266  L 10.363636363636363 42.909090909090914  Z " stroke-width="0" stroke-dasharray="0" stroke="rgba(255, 255, 255, 0)" fill="none" transform="matrix(1 0 0 1 617 242 )" class="stroke" mask="url(#Clip245)" />
    <path d="M 10.363636363636363 10.727272727272725  L 15.545454545454545 10.727272727272725  L 15.545454545454545 16.09090909090909  L 10.363636363636363 16.09090909090909  L 10.363636363636363 10.727272727272725  Z " stroke-width="0" stroke-dasharray="0" stroke="rgba(255, 255, 255, 0)" fill="none" transform="matrix(1 0 0 1 617 242 )" class="stroke" mask="url(#Clip245)" />
    <path d="M 41.45454545454545 10.727272727272725  L 46.63636363636364 10.727272727272725  L 46.63636363636364 16.09090909090909  L 41.45454545454545 16.09090909090909  L 41.45454545454545 10.727272727272725  Z " stroke-width="0" stroke-dasharray="0" stroke="rgba(255, 255, 255, 0)" fill="none" transform="matrix(1 0 0 1 617 242 )" class="stroke" mask="url(#Clip245)" />
    <path d="M 6 37  L 6 53  L 21 53  L 21 37  L 6 37  Z " stroke-width="0" stroke-dasharray="0" stroke="rgba(255, 255, 255, 0)" fill="none" transform="matrix(1 0 0 1 617 242 )" class="stroke" mask="url(#Clip245)" />
    <path d="M 6 6  L 6 22  L 21 22  L 21 6  L 6 6  Z " stroke-width="0" stroke-dasharray="0" stroke="rgba(255, 255, 255, 0)" fill="none" transform="matrix(1 0 0 1 617 242 )" class="stroke" mask="url(#Clip245)" />
    <path d="M 36 6  L 36 22  L 51 22  L 51 6  L 36 6  Z " stroke-width="0" stroke-dasharray="0" stroke="rgba(255, 255, 255, 0)" fill="none" transform="matrix(1 0 0 1 617 242 )" class="stroke" mask="url(#Clip245)" />
    <path d="M 0 32  L 26 32  L 26 59  L 0 59  L 0 32  Z " stroke-width="0" stroke-dasharray="0" stroke="rgba(255, 255, 255, 0)" fill="none" transform="matrix(1 0 0 1 617 242 )" class="stroke" mask="url(#Clip245)" />
    <path d="M 41.45454545454545 53.63636363636363  L 46.63636363636364 53.63636363636363  L 46.63636363636364 59  L 41.45454545454545 59  L 41.45454545454545 53.63636363636363  Z " stroke-width="0" stroke-dasharray="0" stroke="rgba(255, 255, 255, 0)" fill="none" transform="matrix(1 0 0 1 617 242 )" class="stroke" mask="url(#Clip245)" />
    <path d="M 51.81818181818181 53.63636363636363  L 57 53.63636363636363  L 57 59  L 51.81818181818181 59  L 51.81818181818181 53.63636363636363  Z " stroke-width="0" stroke-dasharray="0" stroke="rgba(255, 255, 255, 0)" fill="none" transform="matrix(1 0 0 1 617 242 )" class="stroke" mask="url(#Clip245)" />
    <path d="M 51.81818181818181 32.18181818181818  L 57 32.18181818181818  L 57 48  L 41.45454545454545 48  L 41.45454545454545 42.909090909090914  L 36 42.909090909090914  L 36 59  L 31 59  L 31 32  L 46.63636363636364 32  L 46.63636363636364 37.54545454545455  L 51.81818181818181 37.54545454545455  L 51.81818181818181 32.18181818181818  Z " stroke-width="0" stroke-dasharray="0" stroke="rgba(255, 255, 255, 0)" fill="none" transform="matrix(1 0 0 1 617 242 )" class="stroke" mask="url(#Clip245)" />
    <path d="M 0 0  L 26 0  L 26 27  L 0 27  L 0 0  Z " stroke-width="0" stroke-dasharray="0" stroke="rgba(255, 255, 255, 0)" fill="none" transform="matrix(1 0 0 1 617 242 )" class="stroke" mask="url(#Clip245)" />
    <path d="M 31 0  L 57 0  L 57 27  L 31 27  L 31 0  Z " stroke-width="0" stroke-dasharray="0" stroke="rgba(255, 255, 255, 0)" fill="none" transform="matrix(1 0 0 1 617 242 )" class="stroke" mask="url(#Clip245)" />
  </g>
</svg>